<svg id="Layer_1" data-name="Layer 1" xmlns="http://www.w3.org/2000/svg" xmlns:xlink="http://www.w3.org/1999/xlink" viewBox="0 0 32 32"><defs><style>.cls-1{fill:url(#radial-gradient);}.cls-2{fill:#d8a1ff;}</style><radialGradient id="radial-gradient" cx="-2764.4" cy="1994.87" r="0.01" gradientTransform="matrix(2291.67, 0, 0, -2218.75, 6335104.27, 4426130.98)" gradientUnits="userSpaceOnUse"><stop offset="0" stop-color="#442f55" stop-opacity="0.98"/><stop offset="1" stop-color="#12002c"/></radialGradient></defs><title>tools</title><path class="cls-1" d="M1.33,1.73H30.67V30.27H1.33Z"/><path class="cls-2" d="M1.33,1.73H30.67V30.27H1.33ZM0,31.6H32V.4H0ZM22.64,15.44a5.33,5.33,0,0,0,1,0c0-.09,0-.16,0-.22,0-.72-.34-2.06-1.73-2.06s-1.83,1.12-2,2.31Zm-2.71,1.83c0,1.8.88,3,2.91,3A5.28,5.28,0,0,0,25,19.87c.1,0,.16,0,.16.09v1.67a.27.27,0,0,1-.13.26,6,6,0,0,1-2.68.51c-3.52,0-4.84-2.6-4.84-5.49,0-3.15,1.63-5.72,4.49-5.72s3.92,2.44,3.92,4.42a7.52,7.52,0,0,1-.1,1.42.21.21,0,0,1-.18.17,19.42,19.42,0,0,1-2.22.09h-3.5Zm-7.14-1.36c-.38-1.48-1.28-4.71-1.62-6.27h0c-.28,1.56-1,4.2-1.56,6.27ZM9,18.07l-1,4c0,.11-.07.15-.2.15h-2c-.14,0-.16,0-.14-.2L9.48,8.76a3.74,3.74,0,0,0,.13-1.09c0-.1,0-.14.11-.14h2.8c.09,0,.13,0,.16.14L16.92,22c0,.1,0,.17-.11.17h-2.2a.19.19,0,0,1-.2-.13l-1.09-4Z"/></svg>