<svg id="Layer_1" data-name="Layer 1" xmlns="http://www.w3.org/2000/svg" viewBox="0 0 32 32"><defs><style>.cls-1{fill:#272727;}.cls-1,.cls-2,.cls-3,.cls-4{fill-rule:evenodd;}.cls-2{fill:#74bb11;}.cls-3{fill:#009cd9;}.cls-4{fill:#eb2084;}</style></defs><title>tools</title><path class="cls-1" d="M29.08,12.18c-1.31,0-2,.26-2.47.85a5.18,5.18,0,0,0-.54,3c0,2.7.42,3.83,3,3.83.31,0,1.37,0,2-.08a.4.4,0,0,0,.35-.39v-.3a.41.41,0,0,0-.41-.41H29.08c-1.46,0-1.73-.34-1.76-2.3v-.63c0-2,.27-2.35,1.76-2.35s1.63.31,1.67,2.07H28.58v1.19h2.86c.56,0,.56-.39.56-.52v-.38c0-2.74-.7-3.54-2.92-3.54m-3.77.11h0a9.18,9.18,0,0,0-1.35-.1c-1.28,0-1.95.54-1.95,1.55v5.63a.37.37,0,0,0,.39.39h.45a.38.38,0,0,0,.4-.39V13.83c0-.25.06-.47.82-.47h1.13a.4.4,0,0,0,.3-.09.37.37,0,0,0,.14-.3v-.29a.39.39,0,0,0-.3-.39m-5.45,0h-.45a.38.38,0,0,0-.4.4v6H17.12c-1.16,0-1.64-.07-1.64-1.93v-4a.38.38,0,0,0-.39-.4h-.44a.39.39,0,0,0-.41.4v4c0,2.64,1,3.11,3,3.11a18.52,18.52,0,0,0,2.67-.14h0a.39.39,0,0,0,.35-.4V12.67a.38.38,0,0,0-.39-.4"/><path class="cls-2" d="M12.84,12.46a.36.36,0,0,0-.34-.2h-.58a.38.38,0,0,0-.36.19l-.87,1.27.76,1,1.32-1.89a.36.36,0,0,0,.07-.4"/><path class="cls-3" d="M8.28,12.44h0a.44.44,0,0,0-.37-.18H7.34a.35.35,0,0,0-.33.19.37.37,0,0,0,0,.39l2.11,2.93-2.43,3.4a.39.39,0,0,0,0,.39.36.36,0,0,0,.33.18h.58a.4.4,0,0,0,.35-.2l2.72-3.75Z"/><path class="cls-4" d="M13.13,19.2l-1.7-2.33-.75,1L12,19.69h0a.33.33,0,0,0,.17,0h.57a.35.35,0,0,0,.32-.17.38.38,0,0,0,0-.37"/><path class="cls-1" d="M4.49,16.57v2a16,16,0,0,1-1.76.1c-1.33,0-1.47-.36-1.47-1.13s.27-.95,1.11-.95ZM2.66,12.18a12.43,12.43,0,0,0-1.66.1H1a.39.39,0,0,0-.31.4V13a.37.37,0,0,0,.4.39h1.6c1.3,0,1.83.35,1.83,1.21v.84H2.37C.71,15.41,0,16,0,17.52c0,1.65.73,2.3,2.61,2.3a13.37,13.37,0,0,0,2.68-.22A.54.54,0,0,0,5.73,19V14.49c0-1.55-1-2.31-3.07-2.31Z"/></svg>