<svg xmlns="http://www.w3.org/2000/svg" viewBox="0 0 64 64"><defs><style>.cls-1{fill:#fff;}</style></defs><title>behance</title><g id="Layer_2" data-name="Layer 2"><path class="cls-1" d="M31.73,3a29,29,0,1,1-29,29,29,29,0,0,1,29-29m0-3a32,32,0,1,0,32,32,32,32,0,0,0-32-32Z"/><path class="cls-1" d="M37,22.56h8.62v2.58H37Z"/><path class="cls-1" d="M41.51,26.65c-8,0-8,8-8,8s-.55,8,8,8c0,0,7.14.41,7.14-5.56H45s.12,2.25-3.35,2.25A3.4,3.4,0,0,1,38,35.71H48.79S50,26.65,41.51,26.65Zm3.27,6.28H37.92a3.74,3.74,0,0,1,3.68-3.22A3.11,3.11,0,0,1,44.78,32.93Z"/><path class="cls-1" d="M28.75,30.87a3.63,3.63,0,0,0,3.19-4c0-3.73-2.61-5.56-5.91-5.56H15.16V42.22H26s6.63.21,6.63-6.16C32.66,36.06,33,30.87,28.75,30.87ZM20,25.05H26s1.48,0,1.48,2.17-.87,2.49-1.86,2.49H20Zm5.8,13.46H20V32.93H26s2.2,0,2.2,2.87C28.23,38.21,26.62,38.49,25.75,38.51Z"/></g></svg>