<svg id="Layer_1" data-name="Layer 1" xmlns="http://www.w3.org/2000/svg" viewBox="0 0 32 32"><defs><style>.cls-1{fill:#563d7c;}.cls-2{isolation:isolate;}.cls-3{fill:#fff;}</style></defs><title>tools</title><g id="solid"><path id="bg" class="cls-1" d="M32,26.67A5.35,5.35,0,0,1,26.67,32H5.33A5.35,5.35,0,0,1,0,26.67V5.33A5.35,5.35,0,0,1,5.33,0H26.67A5.35,5.35,0,0,1,32,5.33Z"/><g id="B" class="cls-2"><path class="cls-3" d="M8.7,7h9.07a6.52,6.52,0,0,1,4,1.15,4.1,4.1,0,0,1,1.52,3.48A4.18,4.18,0,0,1,22.62,14a4.47,4.47,0,0,1-2,1.56v0a4.09,4.09,0,0,1,2.62,1.63,5.42,5.42,0,0,1,.89,3.18,5.17,5.17,0,0,1-.4,2,4.26,4.26,0,0,1-1.22,1.65,6.29,6.29,0,0,1-2.15,1.09,10.56,10.56,0,0,1-3.11.41H8.7V7ZM12,14.77H17.3a2.91,2.91,0,0,0,2-.67A2.4,2.4,0,0,0,20,12.18a2.44,2.44,0,0,0-.7-2,3.18,3.18,0,0,0-2-.57H12v5.15ZM12,23h5.78a3.21,3.21,0,0,0,2.31-.77A2.84,2.84,0,0,0,20.88,20a2.7,2.7,0,0,0-.83-2.13,3.31,3.31,0,0,0-2.31-.74H12Z"/></g></g></svg>