<svg id="Layer_1" data-name="Layer 1" xmlns="http://www.w3.org/2000/svg" xmlns:xlink="http://www.w3.org/1999/xlink" viewBox="0 0 32 32"><defs><style>.cls-1{fill:#2062af;}.cls-2{fill:#3c9cd7;}.cls-3{fill:#fff;}.cls-4{fill:url(#linear-gradient);}.cls-5{fill:url(#linear-gradient-2);}.cls-6{fill:url(#linear-gradient-3);}.cls-7{opacity:0.05;isolation:isolate;}.cls-8{fill:url(#linear-gradient-4);}</style><linearGradient id="linear-gradient" x1="-4261.53" y1="122.56" x2="-4261.53" y2="124.04" gradientTransform="matrix(4.64, 0, 0, -4.64, 19793.01, 585.33)" gradientUnits="userSpaceOnUse"><stop offset="0.39" stop-color="#d1d3d4" stop-opacity="0"/><stop offset="1" stop-color="#d1d3d4"/></linearGradient><linearGradient id="linear-gradient-2" x1="-4259.68" y1="123.3" x2="-4259.68" y2="124.83" xlink:href="#linear-gradient"/><linearGradient id="linear-gradient-3" x1="-4262.42" y1="121.9" x2="-4258.87" y2="121.9" gradientTransform="matrix(4.64, 0, 0, -4.64, 19793.01, 585.33)" gradientUnits="userSpaceOnUse"><stop offset="0" stop-color="#e8e7e5"/><stop offset="1" stop-color="#fff"/></linearGradient><linearGradient id="linear-gradient-4" x1="-4262.58" y1="124.46" x2="-4258.73" y2="124.46" xlink:href="#linear-gradient-3"/></defs><title>tools</title><path class="cls-1" d="M27.56,28.89,16,32,4.44,28.89,1.78,0H30.22Z"/><path class="cls-2" d="M16,2.34V29.52h0L25.38,27,27.54,2.34Z"/><path class="cls-3" d="M16,9.56,7.72,13,8,16.42,16,13,24.5,9.36l.35-3.49L16,9.56Z"/><path class="cls-4" d="M7.72,13,8,16.42,16,13V9.56Z"/><path class="cls-5" d="M24.85,5.87,16,9.56V13L24.5,9.36Z"/><path class="cls-6" d="M7.73,13,8,16.42l12.27,0L20,21l-4,1.14-3.88-1-.23-2.82H8.24l.47,5.45L16,25.94l7.25-2.11L24.2,13Z"/><path class="cls-7" d="M16,13H7.72L8,16.42l8,0V13Zm0,9.12h0l-3.88-1-.24-2.82H8.23l.47,5.45L16,25.94Z"/><path class="cls-8" d="M7,5.87H24.85L24.5,9.36H7.41L7,5.87Z"/><path class="cls-7" d="M16,5.87H7l.44,3.49H16V5.87Z"/></svg>