<svg id="Layer_1" data-name="Layer 1" xmlns="http://www.w3.org/2000/svg" viewBox="0 0 32 32"><defs><style>.cls-1{fill:#0acf83;}.cls-2{fill:#a259ff;}.cls-3{fill:#f24e1e;}.cls-4{fill:#ff7262;}.cls-5{fill:#1abcfe;}</style></defs><title>tools</title><path id="path0_fill" data-name="path0 fill" class="cls-1" d="M10.67,32A5.33,5.33,0,0,0,16,26.67V21.33H10.67a5.34,5.34,0,1,0,0,10.67Z"/><path id="path1_fill" data-name="path1 fill" class="cls-2" d="M5.33,16a5.34,5.34,0,0,1,5.34-5.33H16V21.33H10.67A5.34,5.34,0,0,1,5.33,16Z"/><path id="path1_fill-2" data-name="path1 fill" class="cls-3" d="M5.33,5.33A5.34,5.34,0,0,1,10.67,0H16V10.67H10.67A5.34,5.34,0,0,1,5.33,5.33Z"/><path id="path2_fill" data-name="path2 fill" class="cls-4" d="M16,0h5.33a5.34,5.34,0,1,1,0,10.67H16Z"/><path id="path3_fill" data-name="path3 fill" class="cls-5" d="M26.67,16a5.34,5.34,0,1,1-5.34-5.33A5.34,5.34,0,0,1,26.67,16Z"/></svg>