<svg id="Layer_1" data-name="Layer 1" xmlns="http://www.w3.org/2000/svg" viewBox="0 0 32 32"><defs><style>.cls-1{fill:#e84427;}</style></defs><title>tools</title><path class="cls-1" d="M31.39,14.58l-14-14a2.08,2.08,0,0,0-2.92,0l-2.9,2.91,3.68,3.68a2.44,2.44,0,0,1,3.1,3.11l3.55,3.55a2.45,2.45,0,1,1-1.47,1.38l-3.31-3.31v8.71a2.41,2.41,0,0,1,.65.46,2.45,2.45,0,1,1-3.47,0,2.55,2.55,0,0,1,.81-.54V11.78a2.4,2.4,0,0,1-.81-.54,2.46,2.46,0,0,1-.53-2.68L10.18,4.93.6,14.51a2.06,2.06,0,0,0,0,2.91l14,14a2.08,2.08,0,0,0,2.92,0l13.9-13.91A2,2,0,0,0,31.39,14.58Z"/></svg>