<svg id="Layer_1" data-name="Layer 1" xmlns="http://www.w3.org/2000/svg" viewBox="0 0 32 32"><defs><style>.cls-1{fill:#da4648;fill-rule:evenodd;}</style></defs><title>tools</title><g id="Page-1"><g id="gulp"><g id="Gulp-Logo"><path id="Cup" class="cls-1" d="M15.93,25.25a17.48,17.48,0,0,1-4-.45,7.7,7.7,0,0,1-1.15-.35L11.69,26l.37,5c0,.56,1.76,1,3.94,1S20,31.55,20,31l.28-5,.88-1.54A6.21,6.21,0,0,1,20,24.8,17.32,17.32,0,0,1,15.93,25.25ZM21.14,9.11a39.43,39.43,0,0,1-5.14.3,39.54,39.54,0,0,1-5.14-.3,9.73,9.73,0,0,1-1.6-.33,2,2,0,0,1-.4-.17l.85,7.85c0-.13.09-.27.14-.4a7.27,7.27,0,0,1,.34-.81c.14-.26.28-.51.43-.75a5.45,5.45,0,0,1,.5-.64,3.21,3.21,0,0,1,.54-.51,2.16,2.16,0,0,1,.55-.34,1.41,1.41,0,0,1,.56-.12,1.14,1.14,0,0,1,.61.18,1.66,1.66,0,0,1,.56.56.45.45,0,0,1,.07.18A.88.88,0,0,1,14,14a.47.47,0,0,1-.09.3.26.26,0,0,1-.21.1.28.28,0,0,1-.21-.11,2.65,2.65,0,0,1-.21-.34.92.92,0,0,0-.25-.29.52.52,0,0,0-.29-.09.87.87,0,0,0-.52.21,2.72,2.72,0,0,0-.55.53,5.61,5.61,0,0,0-.52.76,8.11,8.11,0,0,0-.45.88,6.54,6.54,0,0,0-.3.88,3,3,0,0,0-.12.79,2,2,0,0,0,0,.23.71.71,0,0,0,.06.22.43.43,0,0,0,.12.17.29.29,0,0,0,.19.06.75.75,0,0,0,.29-.08,2.92,2.92,0,0,0,.34-.23c.12-.1.24-.2.36-.32s.23-.24.33-.36l.27-.35a2.12,2.12,0,0,0,.18-.29l.32-1a.45.45,0,0,1,.16-.23.36.36,0,0,1,.2-.06h.09l.09.06a.15.15,0,0,1,.06.09.25.25,0,0,1,0,.13,2.22,2.22,0,0,1,0,.37,1.89,1.89,0,0,1-.09.34l-.12.33c0,.11-.09.23-.13.35a.48.48,0,0,0,0,.13c0,.07-.05.17-.09.28l-.11.37c0,.13-.08.27-.13.41l-.12.42-.11.37c0,.11-.06.2-.08.28a.68.68,0,0,1,0,.13s0,.09-.05.15l-.09.15a.68.68,0,0,1-.12.12.21.21,0,0,1-.13.05.19.19,0,0,1-.16-.08.56.56,0,0,1,0-.27v-.12a2,2,0,0,1,.06-.25l.11-.41.15-.47c.05-.17.1-.32.14-.44l-.4.41a3.65,3.65,0,0,1-.44.36,2.75,2.75,0,0,1-.46.27,1,1,0,0,1-.44.1.77.77,0,0,1-.42-.1l-.07-.05.48,5c.12.31,2.45,1.07,5.51,1.07s5.4-.76,5.52-1.07l.68-5.92-.17.16c-.19.18-.37.33-.55.47a2.26,2.26,0,0,1-.51.3,1.32,1.32,0,0,1-.53.11.65.65,0,0,1-.41-.12.4.4,0,0,1-.14-.32v-.06a.81.81,0,0,1,.11-.29,2.19,2.19,0,0,1,.23-.33l.28-.36.28-.33.21-.29a.49.49,0,0,0,.08-.22.11.11,0,0,0,0-.08.19.19,0,0,0-.12,0,.67.67,0,0,0-.29.08,1.43,1.43,0,0,0-.29.19,2.47,2.47,0,0,0-.28.28,2.91,2.91,0,0,0-.26.33,4,4,0,0,0-.22.34c-.07.11-.12.22-.17.31a.69.69,0,0,1-.06.13c0,.06-.05.12-.08.19a2,2,0,0,1-.1.21l-.09.21-.08.17,0,.11-.06.14q0,.11-.09.24c0,.09-.07.19-.11.29s-.08.2-.11.29l-.09.24c0,.07,0,.12-.05.14a1.19,1.19,0,0,1-.08.2.71.71,0,0,1-.11.17.53.53,0,0,1-.14.12.47.47,0,0,1-.17,0,.33.33,0,0,1-.21-.06c-.06,0-.08-.12-.08-.23a.5.5,0,0,1,0-.17,1.09,1.09,0,0,1,.05-.17l.06-.17a.47.47,0,0,0,.06-.15l.39-.83.37-.82c0-.06.05-.12.08-.17l0,0a5.21,5.21,0,0,1-.45.39,2.3,2.3,0,0,1-.44.26,1,1,0,0,1-.44.1.53.53,0,0,1-.23,0,.34.34,0,0,1-.16-.13.49.49,0,0,1-.08-.18.22.22,0,0,1,0-.08l-.13.09a1.86,1.86,0,0,1-.42.25,1,1,0,0,1-.38.09.33.33,0,0,1-.27-.11.54.54,0,0,1-.11-.38,1.92,1.92,0,0,1,.06-.44,2.13,2.13,0,0,1-.23.32,1.52,1.52,0,0,1-.31.31,1.47,1.47,0,0,1-.39.22,1.4,1.4,0,0,1-.47.08.78.78,0,0,1-.22,0,.5.5,0,0,1-.19-.1.64.64,0,0,1-.13-.18.85.85,0,0,1,0-.3,1.11,1.11,0,0,0,0-.13,3.07,3.07,0,0,1,.09-.38c.05-.17.12-.4.23-.68a10.4,10.4,0,0,1,.44-1,.62.62,0,0,1,.17-.23.4.4,0,0,1,.21-.07l.1,0,.1,0A.27.27,0,0,1,15,16a.2.2,0,0,1,0,.11.19.19,0,0,1,0,.08.67.67,0,0,1-.08.18,2.1,2.1,0,0,1-.13.26c0,.1-.11.21-.16.32a3.73,3.73,0,0,0-.16.35c-.05.12-.09.25-.13.37a2.58,2.58,0,0,0-.06.37.2.2,0,0,0,0,.13.11.11,0,0,0,.11.07.75.75,0,0,0,.44-.15,2.2,2.2,0,0,0,.38-.37,3.94,3.94,0,0,0,.31-.48,4.14,4.14,0,0,0,.24-.46c0-.1.08-.2.11-.3l.11-.3a1,1,0,0,1,.14-.23.25.25,0,0,1,.19-.09.24.24,0,0,1,.2.09.37.37,0,0,1,.07.23.68.68,0,0,1,0,.21c0,.08-.07.18-.12.29s-.1.24-.16.36l-.15.39a3.3,3.3,0,0,0-.12.38,1.55,1.55,0,0,0-.05.35c0,.1.05.15.16.15a.67.67,0,0,0,.27-.07,2.21,2.21,0,0,0,.33-.21l.09-.07a2.11,2.11,0,0,1,.12-.38l.24-.64c.09-.21.16-.4.23-.58l1.06-2.67a.44.44,0,0,1,.17-.22.36.36,0,0,1,.22-.07.28.28,0,0,1,.19.07.27.27,0,0,1,.09.23.4.4,0,0,1,0,.15,1.34,1.34,0,0,1-.07.18l-.21.48-.26.61c-.09.22-.19.45-.28.69l-.28.69c-.1.23-.18.44-.26.65l-.21.52c0,.07-.05.14-.08.23a.89.89,0,0,0,0,.22.25.25,0,0,0,0,.1.09.09,0,0,0,.08,0,.49.49,0,0,0,.18-.05l.24-.14.27-.2.27-.22.26-.24c.08-.08.16-.15.22-.22l.05,0c0-.12.08-.23.11-.35s.05-.12.08-.21.07-.18.11-.27a1.18,1.18,0,0,1,.14-.22.21.21,0,0,1,.17-.1.28.28,0,0,1,.2.06.29.29,0,0,1,.07.19s0,0,0,.08,0,.07,0,.11,0,.08,0,.12a.31.31,0,0,0,0,.08,2.47,2.47,0,0,1,.28-.28,1.79,1.79,0,0,1,.31-.25,1.5,1.5,0,0,1,.32-.19,1.09,1.09,0,0,1,.34-.07.62.62,0,0,1,.23,0,.72.72,0,0,1,.2.09.46.46,0,0,1,.14.17.4.4,0,0,1,.06.22,1,1,0,0,1-.08.36,2.56,2.56,0,0,1-.22.39l-.28.38-.28.33-.22.26a.36.36,0,0,0-.09.14.11.11,0,0,0,0,.08.15.15,0,0,0,.1,0,.46.46,0,0,0,.18-.06l.32-.23.53-.44.51-.45.92-8.55a1.91,1.91,0,0,1-.39.17A9.89,9.89,0,0,1,21.14,9.11ZM16,7.08c-4,0-7.23.45-7.23,1s3.24,1,7.23,1,7.22-.45,7.22-1S20,7.08,16,7.08Zm2.88,1.29c0,.13-.38.24-.86.24s-.86-.11-.86-.24.39-.23.86-.23S18.88,8.24,18.88,8.37Z"/><path id="Straw" class="cls-1" d="M17.34,8.27s0,0,0,0,.31.15.69.15.69-.07.69-.15l.91-3.66L23.21.84h0c.08-.08-.08-.35-.33-.58S22.34,0,22.26,0h0l-3.83,4Z"/></g></g></g></svg>