<svg id="Layer_1" data-name="Layer 1" xmlns="http://www.w3.org/2000/svg" viewBox="0 0 32 32"><defs><style>.cls-1{fill:#e34f26;}.cls-2{fill:#ef652a;}.cls-3{fill:#ebebeb;}.cls-4{fill:#fff;}</style></defs><title>tools</title><path class="cls-1" d="M4.47,28.75,1.91,0H30.09L27.53,28.75,16,32"/><path class="cls-2" d="M16,29.5l9.31-2.56L27.53,2.31H16"/><path class="cls-3" d="M16,13H11.34L11,9.37h5V5.87H7.16l.06.94.87,9.75H16Zm0,9.19H16L12,21.13l-.25-2.82H8.28l.44,5.57,7.25,2H16Z"/><path class="cls-4" d="M16,13v3.56h4.37l-.43,4.57L16,22.19v3.69l7.25-2,.06-.63.81-9.31.13-.94H16Zm0-7.13v3.5h8.56l.06-.75.19-1.81.06-.94Z"/></svg>