<svg id="Layer_1" data-name="Layer 1" xmlns="http://www.w3.org/2000/svg" xmlns:xlink="http://www.w3.org/1999/xlink" viewBox="0 0 32 32"><defs><style>.cls-1{fill:url(#radial-gradient);}.cls-2{fill:#ff7f18;}</style><radialGradient id="radial-gradient" cx="-2663.98" cy="1994.87" r="0.01" gradientTransform="matrix(2291.67, 0, 0, -2218.75, 6104972.15, 4426130.98)" gradientUnits="userSpaceOnUse"><stop offset="0" stop-color="#423325" stop-opacity="0.98"/><stop offset="1" stop-color="#1c0a00"/></radialGradient></defs><title>tools</title><path class="cls-1" d="M1.33,1.73H30.67V30.27H1.33Z"/><path class="cls-2" d="M1.33,1.73H30.67V30.27H1.33ZM0,31.6H32V.4H0ZM21,11.52c0-.11,0-.16.16-.16h2.09c.11,0,.16,0,.16.16V22c0,.11,0,.16-.16.16H21.15C21,22.2,21,22.13,21,22V11.52Zm-.15-3a1.36,1.36,0,1,1,2.72,0,1.27,1.27,0,0,1-1.38,1.36A1.25,1.25,0,0,1,20.81,8.49Zm-6,7.42c-.37-1.48-1.25-4.71-1.58-6.27h0c-.28,1.56-1,4.2-1.55,6.27Zm-3.7,2.16-1.06,4c0,.1-.06.13-.2.13h-2c-.13,0-.16,0-.13-.2L11.55,8.75a5,5,0,0,0,.13-1.11c0-.09,0-.13.11-.13h2.8c.09,0,.13,0,.16.13L19,22c0,.1,0,.17-.11.17H16.67c-.11,0-.18,0-.2-.12l-1.1-4Z"/></svg>