<svg id="Layer_1" data-name="Layer 1" xmlns="http://www.w3.org/2000/svg" xmlns:xlink="http://www.w3.org/1999/xlink" viewBox="0 0 32 32"><defs><style>.cls-1{fill:url(#radial-gradient);}.cls-2{fill:#ff408c;}</style><radialGradient id="radial-gradient" cx="-2713.44" cy="1994.87" r="0.01" gradientTransform="matrix(2291.67, 0, 0, -2218.75, 6218333.53, 4426130.98)" gradientUnits="userSpaceOnUse"><stop offset="0" stop-color="#4b2b36" stop-opacity="0.98"/><stop offset="1" stop-color="#250012"/></radialGradient></defs><title>tools</title><path class="cls-1" d="M1.33,1.73H30.67V30.27H1.33Z"/><path class="cls-2" d="M1.33,1.73H30.67V30.27H1.33ZM0,31.6H32V.4H0ZM20.24,13.36a2,2,0,0,0-.79-.13c-1.72,0-2.92,1.32-2.92,3.52,0,2.5,1.23,3.52,2.76,3.52a2.4,2.4,0,0,0,.95-.16Zm-.71-2.17c.28,0,.44,0,.71,0V7.67a.13.13,0,0,1,.13-.14h2.16c.11,0,.14,0,.14.11V20.11a11,11,0,0,0,.06,1.34c0,.1,0,.11-.12.16a8.08,8.08,0,0,1-3.49.79c-2.95,0-5.05-1.83-5.05-5.55a5.31,5.31,0,0,1,5.46-5.66ZM11.71,22c0,.13,0,.17-.18.17h-2A.15.15,0,0,1,9.31,22V7.71c0-.14.06-.18.17-.18h2.07c.1,0,.16,0,.16.16Z"/></svg>