<svg id="Layer_1" data-name="Layer 1" xmlns="http://www.w3.org/2000/svg" viewBox="0 0 64 64"><defs><style>.cls-1{fill:#fff;}</style></defs><title>linkedin</title><path class="cls-1" d="M25,44.3h-6V26.35h6ZM22,23.9h0a3.11,3.11,0,1,1,.07-6.2,3.11,3.11,0,1,1,0,6.2Zm24.5,20.4h-6V34.7c0-2.41-.87-4.06-3-4.06a3.26,3.26,0,0,0-3.06,2.18,4.08,4.08,0,0,0-.19,1.46v10h-6s.08-16.26,0-17.95h6v2.54a5.92,5.92,0,0,1,5.37-3c3.93,0,6.87,2.57,6.87,8.08Z"/><path class="cls-1" d="M32,3A29,29,0,1,1,3,32,29,29,0,0,1,32,3m0-3A32,32,0,1,0,64,32,32,32,0,0,0,32,0Z"/></svg>