<svg id="Layer_1" data-name="Layer 1" xmlns="http://www.w3.org/2000/svg" xmlns:xlink="http://www.w3.org/1999/xlink" viewBox="0 0 32 32"><defs><style>.cls-1{fill:url(#radial-gradient);}.cls-2{fill:#31c5f0;}</style><radialGradient id="radial-gradient" cx="-2613" cy="1994.87" r="0.01" gradientTransform="matrix(2291.67, 0, 0, -2218.75, 5988147.9, 4426130.98)" gradientUnits="userSpaceOnUse"><stop offset="0" stop-color="#34364e" stop-opacity="0.98"/><stop offset="1" stop-color="#0c0824"/></radialGradient></defs><title>tools</title><path class="cls-1" d="M1.33,1.73H30.67V30.27H1.33Z"/><path class="cls-2" d="M1.33,1.73H30.67V30.27H1.33ZM0,31.6H32V.4H0ZM21.57,13.2c-1.05,0-1.41.53-1.41,1s.24.82,1.65,1.55c2.1,1,2.75,2,2.75,3.41,0,2.14-1.63,3.28-3.83,3.28A5.82,5.82,0,0,1,18,21.84c-.09,0-.11-.11-.11-.21v-2c0-.14.07-.18.16-.11a4.93,4.93,0,0,0,2.68.79c1.06,0,1.5-.44,1.5-1s-.31-.91-1.66-1.6c-1.89-.91-2.68-1.83-2.68-3.36,0-1.72,1.35-3.15,3.68-3.15a6.15,6.15,0,0,1,2.39.37.3.3,0,0,1,.13.27v1.83c0,.1-.06.17-.2.13a4.51,4.51,0,0,0-2.32-.6ZM10.11,14.79c.3,0,.54,0,1.08,0,1.56,0,3-.54,3-2.66,0-1.7-1.05-2.55-2.82-2.55-.54,0-1,0-1.28,0ZM7.73,7.71c0-.1.19-.16.3-.16.85,0,2.12-.07,3.44-.07,3.69,0,5.13,2,5.13,4.61,0,3.39-2.45,4.84-5.47,4.84l-1,0V22c0,.1,0,.16-.16.16h-2c-.1,0-.16,0-.16-.16V7.71Z"/></svg>