<svg id="Layer_1" data-name="Layer 1" xmlns="http://www.w3.org/2000/svg" xmlns:xlink="http://www.w3.org/1999/xlink" viewBox="0 0 32 32"><defs><style>.cls-1{fill:url(#radial-gradient);}.cls-2{fill:#e579ff;}</style><radialGradient id="radial-gradient" cx="-2816.1" cy="1994.87" r="0.01" gradientTransform="matrix(2291.67, 0, 0, -2218.75, 6453579.69, 4426130.98)" gradientUnits="userSpaceOnUse"><stop offset="0" stop-color="#4b2d4f" stop-opacity="0.98"/><stop offset="1" stop-color="#180024"/></radialGradient></defs><title>tools</title><path class="cls-1" d="M1.33,1.73H30.67V30.27H1.33Z"/><path class="cls-2" d="M1.33,1.73H30.67V30.27H1.33ZM0,31.6H32V.4H0Zm19.2-18c0-.16,0-.54-.07-1.29,0-.11,0-.13.11-.17a13.68,13.68,0,0,1,4.88-.92c.11,0,.16,0,.16.13v1.93c0,.11,0,.14-.15.14a7.7,7.7,0,0,0-2.52.26v8.4c0,.11,0,.16-.16.16H19.36c-.11,0-.16,0-.16-.16V13.57Zm-8.53,1.22c.3,0,.54,0,1.08,0,1.56,0,3-.54,3-2.66,0-1.7-1-2.55-2.82-2.55-.54,0-1,0-1.28,0v5.15ZM8.31,7.71c0-.1,0-.16.13-.16.85,0,2.11-.07,3.43-.07,3.69,0,5.3,2,5.3,4.63,0,3.38-2.45,4.84-5.46,4.84-.51,0-.68,0-1,0V22c0,.11,0,.16-.16.16H8.45c-.1,0-.16,0-.16-.16V7.71Z"/></svg>