<svg id="Layer_1" data-name="Layer 1" xmlns="http://www.w3.org/2000/svg" viewBox="0 0 32 32"><defs><style>.cls-1{fill:#d06397;}</style></defs><title>tools</title><path class="cls-1" d="M27.54,17.79a6.63,6.63,0,0,0-2.9.68A6.18,6.18,0,0,1,24,17a4.06,4.06,0,0,1,0-1.27,12.68,12.68,0,0,1,.37-1.36c0-.05-.07-.33-.71-.33s-1.2.12-1.26.29a6.13,6.13,0,0,0-.27,1A23.28,23.28,0,0,1,20.12,19a4,4,0,0,1-.45-1.1,4.3,4.3,0,0,1-.05-1.26A10.07,10.07,0,0,1,20,15.3c0-.06-.07-.33-.72-.34s-1.2.13-1.26.3-.13.56-.27,1-1.69,3.86-2.1,4.77c-.21.46-.39.83-.52,1.08h0a.11.11,0,0,0,0,0l-.17.33h0c-.09.16-.18.3-.23.3a2,2,0,0,1,0-1c.24-1.21.8-3.09.79-3.16s.1-.36-.36-.53a.58.58,0,0,0-.66.11s-.07.1-.07.1.5-2.12-1-2.12a4.39,4.39,0,0,0-2.83,1.93L8.47,19.25l-1,.57a.46.46,0,0,1-.07-.07c-1.79-1.91-5.1-3.26-5-5.83.06-.93.38-3.38,6.36-6.36,4.89-2.44,8.81-1.77,9.49-.28,1,2.12-2.1,6.07-7.18,6.64a3.8,3.8,0,0,1-3.21-.81c-.27-.29-.31-.31-.41-.25s-.06.35,0,.5A3,3,0,0,0,9.3,14.81a9.83,9.83,0,0,0,6-.59C18.34,13,20.74,9.71,20,6.94S14.65,3.2,10.22,4.77A22,22,0,0,0,2.7,9.09C.26,11.36-.13,13.35,0,14.18.6,17.12,4.66,19,6.28,20.46l-.22.12c-.82.4-3.91,2-4.68,3.73-.88,1.94.14,3.33.81,3.52a5,5,0,0,0,5.38-2.18,5.4,5.4,0,0,0,.48-5s0,0,0,0l.64-.37c.41-.25.82-.47,1.17-.66a8,8,0,0,0-.41,2.12,4.44,4.44,0,0,0,1,3.09,1.07,1.07,0,0,0,.77.25c.69,0,1-.57,1.35-1.25.42-.83.79-1.79.79-1.79s-.47,2.61.82,2.61c.47,0,.94-.61,1.15-.92h0l0-.06.08-.12h0c.19-.33.61-1.07,1.23-2.3.81-1.59,1.59-3.58,1.59-3.58a9.84,9.84,0,0,0,.31,1.29,12.05,12.05,0,0,0,.66,1.5c-.18.26-.3.41-.3.41h0c-.15.2-.31.41-.49.62a17.58,17.58,0,0,0-1.5,1.88.52.52,0,0,0,.14.69,1.33,1.33,0,0,0,.79.12A3.84,3.84,0,0,0,19,23.91a4,4,0,0,0,1-.54,2.23,2.23,0,0,0,1-2,3.88,3.88,0,0,0-.37-1.4l.17-.25a26.57,26.57,0,0,0,1.76-3,10.64,10.64,0,0,0,.3,1.29,9.45,9.45,0,0,0,.57,1.29,5.46,5.46,0,0,0-1.7,2.2c-.37,1.06-.08,1.55.46,1.66A1.71,1.71,0,0,0,23,23a4.41,4.41,0,0,0,1.08-.55,2.46,2.46,0,0,0,1.19-2A4,4,0,0,0,25,19.26a6.08,6.08,0,0,1,3.1-.36c2.78.33,3.33,2.06,3.23,2.79a1.84,1.84,0,0,1-.89,1.25c-.19.12-.25.16-.24.25s.12.13.28.1A2.17,2.17,0,0,0,32,21.35C32.06,19.65,30.43,17.78,27.54,17.79ZM6.09,25c-.92,1-2.21,1.38-2.76,1.06S3,24.26,4.1,23.2a14.82,14.82,0,0,1,2.17-1.62l.57-.34.06,0h0L7,21.11A4,4,0,0,1,6.09,25Zm6.71-4.57c-.32.78-1,2.79-1.4,2.68s-.56-1.62-.07-3.11a7,7,0,0,1,1.09-2c.51-.56,1.06-.75,1.2-.52S13,20,12.8,20.46Zm5.55,2.65a.45.45,0,0,1-.32.08s.06-.12.06-.12.69-.75,1-1.09.34-.43.54-.69v.08C19.6,22.26,18.74,22.86,18.35,23.11Zm4.28-1c-.11-.07-.09-.3.25-1a3.85,3.85,0,0,1,.95-1.23,1.79,1.79,0,0,1,.09.54A1.76,1.76,0,0,1,22.63,22.13Z"/></svg>