<svg id="Layer_1" data-name="Layer 1" xmlns="http://www.w3.org/2000/svg" xmlns:xlink="http://www.w3.org/1999/xlink" viewBox="0 0 32 32"><defs><style>.cls-1{fill:#4d4d4e;}.cls-2{fill:#f89820;}.cls-3{fill:url(#linear-gradient);}</style><linearGradient id="linear-gradient" x1="-2227.91" y1="1964.77" x2="-2224.88" y2="1965.82" gradientTransform="matrix(5.59, 0, 0, -5.59, 12471.57, 11016.35)" gradientUnits="userSpaceOnUse"><stop offset="0.23" stop-color="#f89822"/><stop offset="1" stop-color="#c27818"/></linearGradient></defs><title>tools</title><path class="cls-1" d="M30.76,32H1.24A1.25,1.25,0,0,1,0,30.76V1.24A1.25,1.25,0,0,1,1.24,0H30.76A1.25,1.25,0,0,1,32,1.24V30.76A1.25,1.25,0,0,1,30.76,32Z"/><path class="cls-2" d="M7.38,9.8,24.12,4.48s1.19-.62.9.53l.05,5.12s.2.76-.83.94l-6.8,2.13Z"/><path class="cls-2" d="M7.38,9.8s-.66.15-.47,1.28l0,4.93s-.06.63,1.12.88l16.59,5.34s.56.22.5-.47v-5.5s.15-.56-.88-.93L17.44,13.2Z"/><path class="cls-3" d="M14.69,19,7.63,21.19s-.85,0-.75,1.63,0,4.81,0,4.81.07.59.89.25L24.5,22.54s.6-.15.09-.32S14.69,19,14.69,19Z"/></svg>