<svg id="Layer_1" data-name="Layer 1" xmlns="http://www.w3.org/2000/svg" viewBox="0 0 32 32"><defs><style>.cls-1{fill:#2e001e;}.cls-2{fill:#ff2bc2;}</style></defs><title>xd</title><path class="cls-1" d="M1.33,1.73H30.67V30.27H1.33Z"/><path class="cls-2" d="M0,.4V31.6H32V.4ZM1.33,1.73H30.67V30.27H1.33V1.73Z"/><path class="cls-2" d="M23.24,13.51a1.71,1.71,0,0,0-.77-.14c-1.68,0-2.8,1.3-2.8,3.44,0,2.46,1.14,3.44,2.64,3.44a2.69,2.69,0,0,0,.92-.14v-6.6Zm-6,3.41c0-3.11,2-5.53,5.28-5.53.28,0,.42,0,.69,0V8a.14.14,0,0,1,.13-.14h2.15c.11,0,.13,0,.13.11V20.11a8.94,8.94,0,0,0,.07,1.3c0,.1,0,.11-.08.15a8,8,0,0,1-3.41.77C19.33,22.33,17.27,20.55,17.27,16.92Zm-4.55-2.16L16.45,22c.07.11,0,.21-.08.21H14.05a.27.27,0,0,1-.28-.17q-1.27-2.64-2.61-5.48h0c-.8,1.79-1.68,3.73-2.53,5.49a.25.25,0,0,1-.24.15H6.15C6,22.2,6,22.09,6.07,22l3.65-7L6.19,8a.12.12,0,0,1,.09-.2H8.57c.14,0,.2,0,.24.15.84,1.77,1.7,3.52,2.5,5.3h0C12.11,11.49,13,9.72,13.77,8c.07-.1.11-.17.24-.17h2.15c.11,0,.15.08.08.2l-3.52,6.76Z"/></svg>