<?xml version="1.0" encoding="utf-8"?>
<!-- Generator: Adobe Illustrator 24.0.3, SVG Export Plug-In . SVG Version: 6.00 Build 0)  -->
<svg version="1.1" id="Layer_1" xmlns="http://www.w3.org/2000/svg" xmlns:xlink="http://www.w3.org/1999/xlink" x="0px" y="0px"
	 viewBox="0 0 136.56 68.06" style="enable-background:new 0 0 136.56 68.06;" xml:space="preserve">
<style type="text/css">
	.st0{fill:#FFFFFF;}
</style>
<g>
	<g>
		<path class="st0" d="M1.63,37.54c-0.74,0-1.23-0.24-1.49-0.72C0.05,36.66,0,36.53,0,36.43s0.03-0.18,0.1-0.24
			c2.91-2.14,6.37-5.5,10.37-10.08c-1.98-1.09-3.52-2.39-4.61-3.91c-1.09-1.52-1.63-2.93-1.63-4.22s0.4-2.31,1.2-3.05
			c0.8-0.74,1.97-1.1,3.5-1.1c2.91,0,5.39,1.68,7.44,5.04c0.9-1.12,2.33-2.94,4.3-5.47c1.97-2.53,3.4-4.34,4.3-5.45
			c0.9-1.1,2-2.41,3.31-3.91C30.7,1.34,32.54,0,33.79,0c0.96,0.03,1.44,0.54,1.44,1.54c0,1.06-0.36,2.5-1.08,4.34
			c-0.72,1.84-1.3,3.3-1.73,4.37c-0.43,1.07-1.07,2.5-1.92,4.27c-0.85,1.78-1.51,3.18-1.99,4.22c-0.48,1.04-1.22,2.58-2.21,4.61
			c-0.99,2.03-1.68,3.45-2.06,4.25c2.46-0.16,4.42-0.59,5.86-1.3c0.26-0.13,0.42-0.27,0.48-0.43c0.06-0.16,0.15-0.24,0.26-0.24
			c0.11,0,0.22,0.06,0.34,0.19c0.11,0.13,0.17,0.26,0.17,0.38c0,1.09-2.5,1.84-7.49,2.26c-1.25,2.59-2.11,4.46-2.59,5.62
			c-0.13,0.26-0.32,0.38-0.58,0.38c-0.67,0-1.01-0.64-1.01-1.92c-0.13-0.99-0.35-2.35-0.67-4.08c-2.53-0.19-4.9-0.75-7.1-1.68v0.05
			c-1.38,1.7-2.92,3.43-4.63,5.21c-1.71,1.78-3.08,3.13-4.1,4.06L1.63,37.54z M15.84,19.58c-1.89-3.26-4.13-4.9-6.72-4.9
			c-1.15,0-2.02,0.24-2.59,0.72c-0.58,0.48-0.86,1.19-0.86,2.14c0,0.94,0.54,2.11,1.61,3.5c1.07,1.39,2.52,2.62,4.34,3.67
			C12.58,23.6,13.98,21.89,15.84,19.58z M16.51,20.88c-1.02,1.38-2.21,2.91-3.55,4.61c1.89,0.9,3.81,1.5,5.76,1.82
			C18.05,24.62,17.31,22.48,16.51,20.88z M22.46,27.65C29.79,12.42,33.46,3.92,33.46,2.16c0-0.54-0.19-0.82-0.58-0.82
			c-0.58,0-1.38,0.58-2.42,1.73c-1.04,1.15-1.88,2.11-2.52,2.88c-0.64,0.77-1.49,1.83-2.54,3.19c-1.06,1.36-1.93,2.49-2.62,3.38
			c-0.69,0.9-1.66,2.18-2.9,3.86s-2.18,2.92-2.78,3.72c0.99,1.86,1.89,4.3,2.69,7.34C20.54,27.58,21.44,27.65,22.46,27.65z
			 M22.03,28.56h-2.02l0.58,3.02C20.98,30.82,21.46,29.81,22.03,28.56z"/>
		<path class="st0" d="M28.32,30.62c0.61-0.35,1.41-0.91,2.4-1.68c2.43-1.92,3.73-2.88,3.89-2.88c0.48,0,0.72,0.21,0.72,0.62
			c0,0.42-0.25,1.06-0.74,1.92c-0.5,0.86-1.06,1.76-1.68,2.69c-0.62,0.93-0.98,1.49-1.08,1.68c0.03,0.03,0.1,0.05,0.22,0.05
			c0.11,0,0.74-0.42,1.9-1.27s2.35-1.74,3.6-2.69c1.25-0.94,1.98-1.49,2.21-1.63c0.22-0.14,0.43-0.22,0.62-0.22
			c0.38,0.03,0.58,0.26,0.58,0.67c0,0.16-0.54,0.97-1.63,2.42c-1.09,1.46-1.63,2.39-1.63,2.81c0,0.29,0.34,0.43,1.03,0.43
			c0.69,0,1.7-0.31,3.05-0.94c1.34-0.62,2.53-1.26,3.55-1.9l1.54-0.96c0.03,0.06,0.05,0.19,0.05,0.38c0,0.19-0.14,0.35-0.43,0.48
			c-4.32,2.94-7.33,4.42-9.02,4.42c-0.99,0-1.49-0.38-1.49-1.15c0-0.74,0.22-1.44,0.65-2.11s0.81-1.24,1.13-1.7
			c0.32-0.46,0.48-0.71,0.48-0.74c-1.47,1.06-3.22,2.32-5.23,3.79c-2.02,1.47-3.15,2.21-3.41,2.21c-0.19,0-0.29-0.22-0.29-0.67
			c0-0.45,0.63-1.62,1.9-3.5c1.26-1.89,1.9-2.9,1.9-3.02s-0.03-0.19-0.1-0.19l-0.48,0.24l-2.4,1.92c-0.16,0.13-0.46,0.34-0.91,0.62
			c-0.45,0.29-0.73,0.43-0.84,0.43c-0.11,0-0.17-0.07-0.17-0.22C28.18,30.79,28.22,30.69,28.32,30.62z"/>
		<path class="st0" d="M54.53,28.56c-0.19,0-0.29-0.11-0.29-0.34l0.14-0.34c0.58-0.54,0.86-1.01,0.86-1.39
			c0-0.48-0.26-0.72-0.77-0.72c-1.12,0-2.63,0.78-4.54,2.33c-1.9,1.55-2.86,2.94-2.86,4.15c0,0.51,0.34,0.77,1.01,0.77
			c0.67,0,1.45-0.28,2.33-0.84c0.88-0.56,1.63-1.12,2.26-1.68c0.62-0.56,0.97-0.84,1.03-0.84c0.32,0.03,0.48,0.19,0.48,0.48
			c0,0.13-0.25,0.54-0.74,1.25c-0.5,0.7-0.74,1.26-0.74,1.68c0,0.32,0.26,0.48,0.79,0.48c0.53,0,1.46-0.31,2.81-0.94
			c1.34-0.62,2.53-1.26,3.55-1.9l1.54-0.96c0.03,0.06,0.05,0.19,0.05,0.38c0,0.19-0.14,0.35-0.43,0.48
			c-4.32,2.94-7.33,4.42-9.02,4.42c-0.83,0-1.25-0.42-1.25-1.25c0-0.35,0.06-0.72,0.19-1.1c-0.22,0.26-0.89,0.65-1.99,1.18
			c-1.1,0.53-2.09,0.79-2.95,0.79s-1.3-0.4-1.3-1.2c0-1.89,1.31-3.82,3.94-5.78s4.83-2.95,6.62-2.95c1.06,0,1.58,0.45,1.58,1.34
			c0,0.51-0.32,1.06-0.96,1.63C55.23,28.27,54.78,28.56,54.53,28.56z"/>
		<path class="st0" d="M62.93,29.04c-1.54,1.41-2.51,2.11-2.93,2.11c-0.13,0-0.19-0.06-0.19-0.19s0.05-0.24,0.14-0.34
			c0.77-0.42,1.66-1.09,2.69-2.02c-0.16-0.38-0.24-0.8-0.24-1.25c0-1.09,0.56-2.13,1.68-3.12c1.12-0.99,2.06-1.49,2.83-1.49
			c0.42,0,0.62,0.2,0.62,0.6c0,0.4-0.64,1.37-1.92,2.9c-0.13,0.16-0.27,0.32-0.43,0.48c-0.16,0.16-0.33,0.34-0.5,0.55
			s-0.31,0.36-0.41,0.46c0.16,0.16,0.45,0.44,0.86,0.84c0.42,0.4,0.75,0.73,1.01,0.98c0.7,0.71,1.06,1.58,1.06,2.64
			c0,1.06-0.66,1.98-1.97,2.76s-2.68,1.18-4.1,1.18c-1.42,0-2.14-0.42-2.14-1.27c0-0.85,0.66-1.62,1.97-2.33s2.69-1.18,4.13-1.44
			c-0.19-0.26-0.55-0.59-1.08-1.01C63.48,29.68,63.12,29.33,62.93,29.04z M62.35,32.57c-0.96,0.46-1.44,1.01-1.44,1.63
			c0,0.62,0.44,0.94,1.32,0.94s1.66-0.21,2.35-0.62c0.69-0.42,1.03-0.88,1.03-1.39s-0.07-0.99-0.19-1.44
			C64.34,31.81,63.31,32.1,62.35,32.57z M63.94,27.36l1.25-1.34c0.83-0.99,1.25-1.59,1.25-1.8s-0.1-0.31-0.29-0.31
			c-0.54,0-1.1,0.26-1.68,0.79c-0.58,0.53-0.86,1.04-0.86,1.54C63.6,26.73,63.71,27.1,63.94,27.36z"/>
		<path class="st0" d="M70.51,18.43c2.18,0,4.32-0.02,6.43-0.05c3.42-4.38,5.76-6.58,7.01-6.58c0.45,0,0.67,0.24,0.67,0.72
			c0,1.54-1.12,3.46-3.36,5.76l3.65-0.05c2.43-0.1,3.92-0.14,4.46-0.14s0.82,0.06,0.82,0.19c0,0.61-0.42,0.93-1.25,0.96l-9.02,0.38
			c-1.57,1.47-3.5,3.02-5.81,4.66c-2.43,4-3.65,6.72-3.65,8.16c0,0.74,0.47,1.1,1.42,1.1c0.94,0,2.44-0.51,4.49-1.54l3.89-2.26
			c0.03,0.06,0.05,0.19,0.05,0.38c0,0.19-0.14,0.35-0.43,0.48c-1.02,0.7-2.14,1.41-3.36,2.11c-2.59,1.31-4.58,1.97-5.95,1.97
			c-0.64,0-1.14-0.13-1.49-0.38c-0.35-0.25-0.54-0.51-0.58-0.77l-0.1-0.38c0-1.09,0.74-2.92,2.21-5.5c1.47-2.58,3.22-5.21,5.23-7.9
			c-1.54,0.06-2.99,0.1-4.37,0.1c-1.38,0-2.06-0.16-2.06-0.48C69.41,18.78,69.77,18.46,70.51,18.43z M79.1,19.68
			c-1.02,0-1.71,0.02-2.06,0.05c-0.29,0.42-0.69,1.02-1.2,1.82s-0.86,1.34-1.06,1.63C76.45,21.97,77.89,20.8,79.1,19.68z
			 M83.14,13.54c0-0.16-0.06-0.24-0.19-0.24c-0.74,0-2.37,1.68-4.9,5.04h2.4C82.24,16.38,83.14,14.78,83.14,13.54z"/>
		<path class="st0" d="M88.08,28.56c-0.19,0-0.29-0.11-0.29-0.34l0.14-0.34c0.58-0.54,0.86-1.01,0.86-1.39
			c0-0.48-0.26-0.72-0.77-0.72c-1.12,0-2.63,0.78-4.54,2.33c-1.9,1.55-2.86,2.94-2.86,4.15c0,0.51,0.34,0.77,1.01,0.77
			c0.67,0,1.45-0.28,2.33-0.84c0.88-0.56,1.63-1.12,2.26-1.68c0.62-0.56,0.97-0.84,1.03-0.84c0.32,0.03,0.48,0.19,0.48,0.48
			c0,0.13-0.25,0.54-0.74,1.25c-0.5,0.7-0.74,1.26-0.74,1.68c0,0.32,0.26,0.48,0.79,0.48c0.53,0,1.46-0.31,2.81-0.94
			c1.34-0.62,2.53-1.26,3.55-1.9l1.54-0.96c0.03,0.06,0.05,0.19,0.05,0.38c0,0.19-0.14,0.35-0.43,0.48
			c-4.32,2.94-7.33,4.42-9.02,4.42c-0.83,0-1.25-0.42-1.25-1.25c0-0.35,0.06-0.72,0.19-1.1c-0.22,0.26-0.89,0.65-1.99,1.18
			c-1.1,0.53-2.09,0.79-2.95,0.79s-1.3-0.4-1.3-1.2c0-1.89,1.31-3.82,3.94-5.78s4.83-2.95,6.62-2.95c1.06,0,1.58,0.45,1.58,1.34
			c0,0.51-0.32,1.06-0.96,1.63C88.78,28.27,88.33,28.56,88.08,28.56z"/>
		<path class="st0" d="M96.48,29.04c-1.54,1.41-2.51,2.11-2.93,2.11c-0.13,0-0.19-0.06-0.19-0.19s0.05-0.24,0.14-0.34
			c0.77-0.42,1.66-1.09,2.69-2.02c-0.16-0.38-0.24-0.8-0.24-1.25c0-1.09,0.56-2.13,1.68-3.12c1.12-0.99,2.06-1.49,2.83-1.49
			c0.42,0,0.62,0.2,0.62,0.6c0,0.4-0.64,1.37-1.92,2.9c-0.13,0.16-0.27,0.32-0.43,0.48c-0.16,0.16-0.33,0.34-0.5,0.55
			s-0.31,0.36-0.41,0.46c0.16,0.16,0.45,0.44,0.86,0.84c0.42,0.4,0.75,0.73,1.01,0.98c0.7,0.71,1.06,1.58,1.06,2.64
			c0,1.06-0.66,1.98-1.97,2.76s-2.68,1.18-4.1,1.18c-1.42,0-2.14-0.42-2.14-1.27c0-0.85,0.66-1.62,1.97-2.33s2.69-1.18,4.13-1.44
			c-0.19-0.26-0.55-0.59-1.08-1.01C97.03,29.68,96.67,29.33,96.48,29.04z M95.9,32.57c-0.96,0.46-1.44,1.01-1.44,1.63
			c0,0.62,0.44,0.94,1.32,0.94s1.66-0.21,2.35-0.62c0.69-0.42,1.03-0.88,1.03-1.39s-0.07-0.99-0.19-1.44
			C97.89,31.81,96.86,32.1,95.9,32.57z M97.49,27.36l1.25-1.34c0.83-0.99,1.25-1.59,1.25-1.8s-0.1-0.31-0.29-0.31
			c-0.54,0-1.1,0.26-1.68,0.79c-0.58,0.53-0.86,1.04-0.86,1.54C97.15,26.73,97.26,27.1,97.49,27.36z"/>
		<path class="st0" d="M107.09,25.97c0.16-0.26,0.38-0.38,0.67-0.38s0.58,0.14,0.86,0.43c0,0.13-0.21,0.42-0.62,0.86
			s-1.12,1.45-2.11,3c-0.99,1.55-1.49,2.58-1.49,3.1c0,0.32,0.24,0.51,0.72,0.58c0.64,0,1.63-0.31,2.98-0.94
			c1.34-0.62,2.53-1.26,3.55-1.9l1.54-0.96c0.03,0.06,0.05,0.19,0.05,0.38c0,0.19-0.14,0.35-0.43,0.48
			c-4.32,2.94-7.33,4.42-9.02,4.42c-0.83,0-1.25-0.42-1.25-1.25c0-0.83,0.46-1.99,1.37-3.48C104.81,28.82,105.87,27.38,107.09,25.97
			z M111.6,19.63c0.48,0,0.72,0.24,0.72,0.72c0,0.48-0.22,0.97-0.67,1.46c-0.45,0.5-0.94,0.74-1.49,0.74
			c-0.45,0-0.67-0.31-0.67-0.94s0.26-1.11,0.77-1.46S111.21,19.63,111.6,19.63z"/>
		<path class="st0" d="M115.87,25.97c0.16-0.26,0.38-0.38,0.67-0.38s0.58,0.14,0.86,0.43c0,0.13-0.21,0.42-0.62,0.86
			s-1.12,1.45-2.11,3c-0.99,1.55-1.49,2.58-1.49,3.1c0,0.32,0.24,0.51,0.72,0.58c0.64,0,1.63-0.31,2.98-0.94
			c1.34-0.62,2.53-1.26,3.55-1.9l1.54-0.96c0.03,0.06,0.05,0.19,0.05,0.38c0,0.19-0.14,0.35-0.43,0.48
			c-4.32,2.94-7.33,4.42-9.02,4.42c-0.83,0-1.25-0.42-1.25-1.25c0-0.83,0.46-1.99,1.37-3.48C113.59,28.82,114.65,27.38,115.87,25.97
			z M120.38,19.63c0.48,0,0.72,0.24,0.72,0.72c0,0.48-0.22,0.97-0.67,1.46c-0.45,0.5-0.94,0.74-1.49,0.74
			c-0.45,0-0.67-0.31-0.67-0.94s0.26-1.11,0.77-1.46S120,19.63,120.38,19.63z"/>
		<path class="st0" d="M129.65,28.56c-0.19,0-0.29-0.11-0.29-0.34l0.14-0.34c0.58-0.54,0.86-1.01,0.86-1.39
			c0-0.48-0.26-0.72-0.77-0.72c-1.12,0-2.63,0.78-4.54,2.33c-1.9,1.55-2.86,2.94-2.86,4.15c0,0.51,0.34,0.77,1.01,0.77
			s1.45-0.28,2.33-0.84c0.88-0.56,1.63-1.12,2.26-1.68c0.62-0.56,0.97-0.84,1.03-0.84c0.32,0.03,0.48,0.19,0.48,0.48
			c0,0.13-0.25,0.54-0.74,1.25c-0.5,0.7-0.74,1.26-0.74,1.68c0,0.32,0.26,0.48,0.79,0.48c0.53,0,1.46-0.31,2.81-0.94
			c1.34-0.62,2.53-1.26,3.55-1.9l1.54-0.96c0.03,0.06,0.05,0.19,0.05,0.38c0,0.19-0.14,0.35-0.43,0.48
			c-4.32,2.94-7.33,4.42-9.02,4.42c-0.83,0-1.25-0.42-1.25-1.25c0-0.35,0.06-0.72,0.19-1.1c-0.22,0.26-0.89,0.65-1.99,1.18
			c-1.1,0.53-2.09,0.79-2.95,0.79c-0.86,0-1.3-0.4-1.3-1.2c0-1.89,1.31-3.82,3.94-5.78c2.62-1.97,4.83-2.95,6.62-2.95
			c1.06,0,1.58,0.45,1.58,1.34c0,0.51-0.32,1.06-0.96,1.63C130.35,28.27,129.9,28.56,129.65,28.56z"/>
	</g>
	<g>
		<path class="st0" d="M7.23,68.06c-1.49,0-2.74-0.32-3.73-0.96c-0.99-0.64-1.74-1.52-2.26-2.66c-0.51-1.13-0.81-2.44-0.9-3.94
			l3.2-0.86c0.06,0.92,0.21,1.8,0.43,2.66c0.22,0.85,0.59,1.55,1.1,2.1c0.51,0.54,1.23,0.82,2.14,0.82c0.94,0,1.65-0.26,2.13-0.78
			c0.48-0.52,0.72-1.27,0.72-2.26c0-1.17-0.27-2.12-0.8-2.83s-1.21-1.43-2.02-2.16l-4.35-3.84c-0.85-0.75-1.48-1.56-1.89-2.45
			c-0.41-0.88-0.61-1.98-0.61-3.28c0-1.9,0.54-3.37,1.63-4.42c1.09-1.04,2.57-1.57,4.45-1.57c1.02,0,1.92,0.13,2.7,0.4
			c0.78,0.27,1.43,0.68,1.95,1.23c0.52,0.55,0.94,1.25,1.25,2.1c0.31,0.84,0.52,1.83,0.62,2.96l-3.07,0.83
			c-0.06-0.85-0.19-1.64-0.38-2.35c-0.19-0.71-0.53-1.29-1.01-1.73c-0.48-0.44-1.17-0.66-2.06-0.66c-0.9,0-1.59,0.24-2.1,0.72
			c-0.5,0.48-0.75,1.19-0.75,2.13c0,0.79,0.13,1.44,0.4,1.95s0.7,1.04,1.3,1.57l4.38,3.84c0.98,0.85,1.84,1.87,2.59,3.06
			c0.75,1.18,1.12,2.59,1.12,4.21c0,1.28-0.27,2.38-0.8,3.31c-0.53,0.93-1.26,1.64-2.19,2.13C9.52,67.81,8.44,68.06,7.23,68.06z"/>
	</g>
	<g>
		<path class="st0" d="M16.35,67.77V41.85h3.62v11.2h6.66v-11.2h3.62v25.92h-3.62V55.64h-6.66v12.13H16.35z"/>
		<path class="st0" d="M41.79,68.06c-1.88,0-3.32-0.37-4.32-1.12c-1-0.75-1.69-1.8-2.05-3.15c-0.36-1.35-0.54-2.94-0.54-4.75V41.85
			h3.46V59.2c0,1.11,0.07,2.12,0.22,3.04c0.15,0.92,0.47,1.64,0.98,2.18c0.5,0.53,1.25,0.8,2.26,0.8c1.02,0,1.78-0.27,2.27-0.8
			c0.49-0.53,0.81-1.26,0.96-2.18c0.15-0.92,0.22-1.93,0.22-3.04V41.85h3.42v17.18c0,1.81-0.18,3.4-0.54,4.75
			c-0.36,1.35-1.04,2.41-2.03,3.15C45.1,67.69,43.67,68.06,41.79,68.06z"/>
	</g>
	<g>
		<path class="st0" d="M58.46,68.06c-1.49,0-2.74-0.32-3.73-0.96c-0.99-0.64-1.74-1.52-2.26-2.66c-0.51-1.13-0.81-2.44-0.9-3.94
			l3.2-0.86c0.06,0.92,0.21,1.8,0.43,2.66c0.22,0.85,0.59,1.55,1.1,2.1c0.51,0.54,1.23,0.82,2.14,0.82c0.94,0,1.65-0.26,2.13-0.78
			c0.48-0.52,0.72-1.27,0.72-2.26c0-1.17-0.27-2.12-0.8-2.83s-1.21-1.43-2.02-2.16l-4.35-3.84c-0.85-0.75-1.48-1.56-1.89-2.45
			c-0.41-0.88-0.61-1.98-0.61-3.28c0-1.9,0.54-3.37,1.63-4.42c1.09-1.04,2.57-1.57,4.45-1.57c1.02,0,1.92,0.13,2.7,0.4
			c0.78,0.27,1.43,0.68,1.95,1.23c0.52,0.55,0.94,1.25,1.25,2.1c0.31,0.84,0.52,1.83,0.62,2.96l-3.07,0.83
			c-0.06-0.85-0.19-1.64-0.38-2.35c-0.19-0.71-0.53-1.29-1.01-1.73c-0.48-0.44-1.17-0.66-2.06-0.66c-0.9,0-1.59,0.24-2.1,0.72
			c-0.5,0.48-0.75,1.19-0.75,2.13c0,0.79,0.13,1.44,0.4,1.95s0.7,1.04,1.3,1.57l4.38,3.84c0.98,0.85,1.84,1.87,2.59,3.06
			c0.75,1.18,1.12,2.59,1.12,4.21c0,1.28-0.27,2.38-0.8,3.31c-0.53,0.93-1.26,1.64-2.19,2.13C60.75,67.81,59.68,68.06,58.46,68.06z"
			/>
	</g>
	<g>
		<path class="st0" d="M67.58,67.77V41.85h3.62v11.2h6.66v-11.2h3.62v25.92h-3.62V55.64H71.2v12.13H67.58z"/>
		<path class="st0" d="M86.33,67.77V41.85h3.62v23.33h6.62v2.59H86.33z"/>
		<path class="st0" d="M100.03,67.77V41.85h3.55v25.92H100.03z"/>
	</g>
	<g>
		<path class="st0" d="M105.85,67.77V41.85h2.46l7.36,17.22V41.85h3.01v25.92h-2.3l-7.46-17.7v17.7H105.85z"/>
	</g>
	<g>
		<path class="st0" d="M121.69,67.77l5.5-25.92h3.49l5.54,25.92h-3.42l-1.18-6.53h-5.28l-1.25,6.53H121.69z M126.81,58.65h4.32
			l-2.18-11.68L126.81,58.65z"/>
	</g>
</g>
</svg>
