<svg xmlns="http://www.w3.org/2000/svg" xmlns:xlink="http://www.w3.org/1999/xlink" viewBox="0 0 400 300"><defs><style>.cls-1{fill:#fff;}.cls-2{fill:#ea5153;}.cls-3{fill:#2f281e;}.cls-4{clip-path:url(#clip-path);}.cls-5{fill:#422d5d;}</style><clipPath id="clip-path"><rect class="cls-1" x="260.88" y="139.84" width="15.56" height="15.56"/></clipPath></defs><title>design-sloth</title><g id="Layer_1" data-name="Layer 1"><rect class="cls-2" width="400" height="300"/><path class="cls-3" d="M127,149.46v10.61h-3.4V133.74h8.37c3,0,5.27.7,6.76,2.1a7.58,7.58,0,0,1,2.24,5.78,7.37,7.37,0,0,1-2.31,5.77q-2.33,2.07-6.69,2.07Zm9.14-4.15a4.9,4.9,0,0,0,1.36-3.69,5,5,0,0,0-1.36-3.76q-1.36-1.29-4.47-1.29H127v10.05h4.67C133.69,146.62,135.18,146.18,136.09,145.31Z"/><path class="cls-3" d="M151.23,140.4a8.8,8.8,0,0,1,4.63-1.17v3.69h-1a7.23,7.23,0,0,0-4.71,1.48c-1.22,1-1.83,2.61-1.83,4.87v10.8h-3.4V139.56h3.4v4.15A7.53,7.53,0,0,1,151.23,140.4Z"/><path class="cls-3" d="M173.81,140.57a9.21,9.21,0,0,1,3.66,3.66,12.5,12.5,0,0,1,0,11.18,9.18,9.18,0,0,1-3.66,3.65,11.63,11.63,0,0,1-10.57,0,9.17,9.17,0,0,1-3.68-3.65,12.25,12.25,0,0,1,0-11.18,9.19,9.19,0,0,1,3.68-3.66,11.63,11.63,0,0,1,10.57,0Zm-8.67,2.54a6.19,6.19,0,0,0-2.5,2.52,9.69,9.69,0,0,0,0,8.37,6.19,6.19,0,0,0,2.5,2.52,7.38,7.38,0,0,0,6.76,0,6.19,6.19,0,0,0,2.5-2.52,9.6,9.6,0,0,0,0-8.37,6.19,6.19,0,0,0-2.5-2.52,7.38,7.38,0,0,0-6.76,0Z"/><path class="cls-3" d="M194.52,154.58v5.49h-2.88a8.28,8.28,0,0,1-5.7-1.82q-2-1.8-2-6V144.6h-2.8v-5.37h2.8v-5.12h6.39v5.12h4.18v5.37H190.3v7.77a2.33,2.33,0,0,0,.5,1.72,2.43,2.43,0,0,0,1.7.49Z"/><path class="cls-3" d="M198.55,131a4.5,4.5,0,0,1,5.53,0,3.15,3.15,0,0,1,1,2.41,3.08,3.08,0,0,1-1,2.37,4.46,4.46,0,0,1-5.53,0,3.05,3.05,0,0,1-1.05-2.37A3.12,3.12,0,0,1,198.55,131Zm5.94,8.28v20.84H198.1V139.23Z"/><path class="cls-3" d="M226.5,140.25a8.86,8.86,0,0,1,3.22,3.7,14.4,14.4,0,0,1,0,11.37A8.86,8.86,0,0,1,226.5,159a8.4,8.4,0,0,1-4.61,1.29,7.51,7.51,0,0,1-4.11-1.09,6.26,6.26,0,0,1-2.5-3V170h-6.39V139.23h6.39V143a6.26,6.26,0,0,1,2.5-2.95,7.51,7.51,0,0,1,4.11-1.09A8.4,8.4,0,0,1,226.5,140.25Zm-10,5.68a6,6,0,0,0,0,7.41,4.32,4.32,0,0,0,3.31,1.38,4.27,4.27,0,0,0,3.3-1.34,6.21,6.21,0,0,0,0-7.47,4.27,4.27,0,0,0-3.3-1.34A4.34,4.34,0,0,0,216.53,145.93Z"/><path class="cls-3" d="M248.13,140.94a8.64,8.64,0,0,1,3,5.23h-6a3.33,3.33,0,0,0-1.18-2,3.58,3.58,0,0,0-2.29-.72,2.55,2.55,0,0,0-1.65.46,1.65,1.65,0,0,0-.56,1.33,1.55,1.55,0,0,0,1,1.45,16.35,16.35,0,0,0,3.23,1,32.28,32.28,0,0,1,3.92,1.13,6.58,6.58,0,0,1,2.66,1.89,5.24,5.24,0,0,1,1.12,3.51,5.38,5.38,0,0,1-1,3.18,6.33,6.33,0,0,1-2.8,2.16,10.8,10.8,0,0,1-4.33.79,11.19,11.19,0,0,1-6.76-1.87,7.9,7.9,0,0,1-3.1-5.34h6.16a2.77,2.77,0,0,0,1.14,2,4.26,4.26,0,0,0,2.56.71,2.4,2.4,0,0,0,1.64-.5,1.69,1.69,0,0,0,.56-1.33,1.6,1.6,0,0,0-1-1.55,19.32,19.32,0,0,0-3.34-1,26.34,26.34,0,0,1-3.81-1,6.36,6.36,0,0,1-2.58-1.81,5.08,5.08,0,0,1-1.08-3.42,5.57,5.57,0,0,1,2.12-4.54,9.29,9.29,0,0,1,6-1.74A9.56,9.56,0,0,1,248.13,140.94Z"/><rect class="cls-1" x="260.88" y="139.84" width="15.56" height="15.56"/><g class="cls-4"><rect class="cls-1" x="253.1" y="132.05" width="31.12" height="31.12"/></g></g><g id="Layer_4_copy_2" data-name="Layer 4 copy 2"><rect class="cls-5" width="400" height="300"/><path class="cls-1" d="M170.7,157.68a5.8,5.8,0,0,1-2.93-.68,4.32,4.32,0,0,1-1.78-2,8.65,8.65,0,0,1-.67-3.24l3.05-.6a9.39,9.39,0,0,0,.27,2,3,3,0,0,0,.7,1.34,1.67,1.67,0,0,0,1.24.46,1.39,1.39,0,0,0,1.22-.51,2.25,2.25,0,0,0,.36-1.31,3.51,3.51,0,0,0-.58-2.09,8.79,8.79,0,0,0-1.53-1.63l-2.45-2.16a7.1,7.1,0,0,1-1.64-2,5.44,5.44,0,0,1-.62-2.7,4.58,4.58,0,0,1,1.35-3.55,5.18,5.18,0,0,1,3.67-1.25,5.46,5.46,0,0,1,2.28.42,3.65,3.65,0,0,1,1.45,1.16,5.35,5.35,0,0,1,.81,1.7,10.57,10.57,0,0,1,.33,2l-3,.53a9.37,9.37,0,0,0-.21-1.63,2.19,2.19,0,0,0-.55-1.13,1.55,1.55,0,0,0-1.16-.41,1.45,1.45,0,0,0-1.21.52,2,2,0,0,0-.42,1.28,3,3,0,0,0,.4,1.62,6.86,6.86,0,0,0,1.18,1.31l2.42,2.13a10.19,10.19,0,0,1,2.06,2.37,6.07,6.07,0,0,1,.85,3.27,5,5,0,0,1-.61,2.48,4.41,4.41,0,0,1-1.71,1.69A5.12,5.12,0,0,1,170.7,157.68Z"/><path class="cls-1" d="M179.86,157.42V138h3.56v17h4.7v2.45Z"/><path class="cls-1" d="M197.41,157.68a6.16,6.16,0,0,1-3.29-.77,4.21,4.21,0,0,1-1.75-2.21,9.91,9.91,0,0,1-.53-3.4V144a9.65,9.65,0,0,1,.53-3.37,4.15,4.15,0,0,1,1.75-2.15,7.75,7.75,0,0,1,6.61,0,4.24,4.24,0,0,1,1.75,2.15A9.41,9.41,0,0,1,203,144v7.3a9.49,9.49,0,0,1-.54,3.37,4.39,4.39,0,0,1-1.75,2.21A6.09,6.09,0,0,1,197.41,157.68Zm0-2.62a1.88,1.88,0,0,0,1.31-.38,2,2,0,0,0,.56-1.06,6.64,6.64,0,0,0,.14-1.46v-8.95a6.61,6.61,0,0,0-.14-1.47,1.89,1.89,0,0,0-.56-1,2,2,0,0,0-1.31-.37,1.92,1.92,0,0,0-1.27.37,1.85,1.85,0,0,0-.58,1,6.61,6.61,0,0,0-.14,1.47v8.95a7.34,7.34,0,0,0,.13,1.46,1.85,1.85,0,0,0,.56,1.06A1.89,1.89,0,0,0,197.41,155.06Z"/><path class="cls-1" d="M209.89,157.42V140.59h-3.1V138h9.7v2.61h-3.05v16.83Z"/><path class="cls-1" d="M220.71,157.42V138h3.53v8.13h4V138h3.55v19.44H228.2v-8.79h-4v8.79Z"/></g></svg>