<svg xmlns="http://www.w3.org/2000/svg" xmlns:xlink="http://www.w3.org/1999/xlink" viewBox="0 0 400 300"><defs><style>.cls-1{fill:#fff;}.cls-2{fill:#ea5153;}.cls-3{fill:#2f281e;}.cls-4{clip-path:url(#clip-path);}.cls-5{fill:#255a71;}.cls-6{fill:#b4ce46;}</style><clipPath id="clip-path"><rect class="cls-1" x="260.88" y="139.84" width="15.56" height="15.56"/></clipPath></defs><title>design-blabla</title><g id="Layer_1" data-name="Layer 1"><rect class="cls-2" width="400" height="300"/><path class="cls-3" d="M127,149.46v10.61h-3.4V133.74h8.37c3,0,5.27.7,6.76,2.1a7.58,7.58,0,0,1,2.24,5.78,7.37,7.37,0,0,1-2.31,5.77q-2.33,2.07-6.69,2.07Zm9.14-4.15a4.9,4.9,0,0,0,1.36-3.69,5,5,0,0,0-1.36-3.76q-1.36-1.29-4.47-1.29H127v10.05h4.67C133.69,146.62,135.18,146.18,136.09,145.31Z"/><path class="cls-3" d="M151.23,140.4a8.8,8.8,0,0,1,4.63-1.17v3.69h-1a7.23,7.23,0,0,0-4.71,1.48c-1.22,1-1.83,2.61-1.83,4.87v10.8h-3.4V139.56h3.4v4.15A7.53,7.53,0,0,1,151.23,140.4Z"/><path class="cls-3" d="M173.81,140.57a9.21,9.21,0,0,1,3.66,3.66,12.5,12.5,0,0,1,0,11.18,9.18,9.18,0,0,1-3.66,3.65,11.63,11.63,0,0,1-10.57,0,9.17,9.17,0,0,1-3.68-3.65,12.25,12.25,0,0,1,0-11.18,9.19,9.19,0,0,1,3.68-3.66,11.63,11.63,0,0,1,10.57,0Zm-8.67,2.54a6.19,6.19,0,0,0-2.5,2.52,9.69,9.69,0,0,0,0,8.37,6.19,6.19,0,0,0,2.5,2.52,7.38,7.38,0,0,0,6.76,0,6.19,6.19,0,0,0,2.5-2.52,9.6,9.6,0,0,0,0-8.37,6.19,6.19,0,0,0-2.5-2.52,7.38,7.38,0,0,0-6.76,0Z"/><path class="cls-3" d="M194.52,154.58v5.49h-2.88a8.28,8.28,0,0,1-5.7-1.82q-2-1.8-2-6V144.6h-2.8v-5.37h2.8v-5.12h6.39v5.12h4.18v5.37H190.3v7.77a2.33,2.33,0,0,0,.5,1.72,2.43,2.43,0,0,0,1.7.49Z"/><path class="cls-3" d="M198.55,131a4.5,4.5,0,0,1,5.53,0,3.15,3.15,0,0,1,1,2.41,3.08,3.08,0,0,1-1,2.37,4.46,4.46,0,0,1-5.53,0,3.05,3.05,0,0,1-1.05-2.37A3.12,3.12,0,0,1,198.55,131Zm5.94,8.28v20.84H198.1V139.23Z"/><path class="cls-3" d="M226.5,140.25a8.86,8.86,0,0,1,3.22,3.7,14.4,14.4,0,0,1,0,11.37A8.86,8.86,0,0,1,226.5,159a8.4,8.4,0,0,1-4.61,1.29,7.51,7.51,0,0,1-4.11-1.09,6.26,6.26,0,0,1-2.5-3V170h-6.39V139.23h6.39V143a6.26,6.26,0,0,1,2.5-2.95,7.51,7.51,0,0,1,4.11-1.09A8.4,8.4,0,0,1,226.5,140.25Zm-10,5.68a6,6,0,0,0,0,7.41,4.32,4.32,0,0,0,3.31,1.38,4.27,4.27,0,0,0,3.3-1.34,6.21,6.21,0,0,0,0-7.47,4.27,4.27,0,0,0-3.3-1.34A4.34,4.34,0,0,0,216.53,145.93Z"/><path class="cls-3" d="M248.13,140.94a8.64,8.64,0,0,1,3,5.23h-6a3.33,3.33,0,0,0-1.18-2,3.58,3.58,0,0,0-2.29-.72,2.55,2.55,0,0,0-1.65.46,1.65,1.65,0,0,0-.56,1.33,1.55,1.55,0,0,0,1,1.45,16.35,16.35,0,0,0,3.23,1,32.28,32.28,0,0,1,3.92,1.13,6.58,6.58,0,0,1,2.66,1.89,5.24,5.24,0,0,1,1.12,3.51,5.38,5.38,0,0,1-1,3.18,6.33,6.33,0,0,1-2.8,2.16,10.8,10.8,0,0,1-4.33.79,11.19,11.19,0,0,1-6.76-1.87,7.9,7.9,0,0,1-3.1-5.34h6.16a2.77,2.77,0,0,0,1.14,2,4.26,4.26,0,0,0,2.56.71,2.4,2.4,0,0,0,1.64-.5,1.69,1.69,0,0,0,.56-1.33,1.6,1.6,0,0,0-1-1.55,19.32,19.32,0,0,0-3.34-1,26.34,26.34,0,0,1-3.81-1,6.36,6.36,0,0,1-2.58-1.81,5.08,5.08,0,0,1-1.08-3.42,5.57,5.57,0,0,1,2.12-4.54,9.29,9.29,0,0,1,6-1.74A9.56,9.56,0,0,1,248.13,140.94Z"/><rect class="cls-1" x="260.88" y="139.84" width="15.56" height="15.56"/><g class="cls-4"><rect class="cls-1" x="253.1" y="132.05" width="31.12" height="31.12"/></g></g><g id="Layer_4_copy_3" data-name="Layer 4 copy 3"><rect class="cls-5" width="400" height="300"/><path class="cls-6" d="M135.42,157.42V138h4.77a10.39,10.39,0,0,1,2.34.24,4.63,4.63,0,0,1,1.8.8,3.66,3.66,0,0,1,1.17,1.52,6.3,6.3,0,0,1,.4,2.43,5.51,5.51,0,0,1-.32,2,3.09,3.09,0,0,1-1,1.34,3.58,3.58,0,0,1-1.56.66,3.91,3.91,0,0,1,1.91.8,3.73,3.73,0,0,1,1.13,1.6,6.63,6.63,0,0,1,.37,2.37,8,8,0,0,1-.35,2.46,4.47,4.47,0,0,1-1,1.78,4.37,4.37,0,0,1-1.7,1.07,7.2,7.2,0,0,1-2.39.36Zm3.55-11.5h1.2a3.45,3.45,0,0,0,1.63-.31,1.7,1.7,0,0,0,.8-1,4.77,4.77,0,0,0,.23-1.63,3,3,0,0,0-.35-1.6,1.75,1.75,0,0,0-1-.77,6.72,6.72,0,0,0-1.78-.2H139Zm0,9h1.34a2.59,2.59,0,0,0,2.19-.78,4.1,4.1,0,0,0,.57-2.41,5.61,5.61,0,0,0-.27-1.91,2,2,0,0,0-.92-1.09,3.39,3.39,0,0,0-1.69-.36H139Z"/><path class="cls-6" d="M151.18,157.42V138h3.56v17h4.7v2.45Z"/><path class="cls-6" d="M162.7,157.42,166.59,138h3.79l3.89,19.44H171l-.76-4.49h-3.39l-.79,4.49Zm4.49-6.75h2.64l-1.32-8.16Z"/><path class="cls-6" d="M178.52,157.42V138h4.78a10.52,10.52,0,0,1,2.34.24,4.77,4.77,0,0,1,1.8.8,3.64,3.64,0,0,1,1.16,1.52A6.28,6.28,0,0,1,189,143a5.5,5.5,0,0,1-.33,2,3.07,3.07,0,0,1-.94,1.34,3.69,3.69,0,0,1-1.56.66,3.91,3.91,0,0,1,1.9.8,3.65,3.65,0,0,1,1.13,1.6,6.63,6.63,0,0,1,.37,2.37,8,8,0,0,1-.34,2.46,4.61,4.61,0,0,1-1,1.78,4.3,4.3,0,0,1-1.7,1.07,7.2,7.2,0,0,1-2.39.36Zm3.55-11.5h1.2a3.42,3.42,0,0,0,1.63-.31,1.68,1.68,0,0,0,.81-1,5,5,0,0,0,.23-1.63,3.09,3.09,0,0,0-.35-1.6,1.75,1.75,0,0,0-1.05-.77,6.64,6.64,0,0,0-1.77-.2h-.7Zm0,9h1.35a2.56,2.56,0,0,0,2.18-.78,4.09,4.09,0,0,0,.58-2.41,5.59,5.59,0,0,0-.28-1.91,2,2,0,0,0-.91-1.09,3.45,3.45,0,0,0-1.69-.36h-1.23Z"/><path class="cls-6" d="M194.29,157.42V138h3.55v17h4.7v2.45Z"/><path class="cls-6" d="M205.81,157.42,209.7,138h3.79l3.89,19.44h-3.29l-.77-4.49h-3.38l-.8,4.49Zm4.49-6.75h2.64l-1.32-8.16Z"/><path class="cls-6" d="M226.74,157.68a5.8,5.8,0,0,1-3.35-.84,4.35,4.35,0,0,1-1.69-2.29,10.7,10.7,0,0,1-.48-3.35v-6.94a11.1,11.1,0,0,1,.48-3.45,4.13,4.13,0,0,1,1.69-2.26,6.06,6.06,0,0,1,3.35-.79,6.19,6.19,0,0,1,3.15.68,3.78,3.78,0,0,1,1.62,2,8.33,8.33,0,0,1,.48,2.95V145h-3.41V143.3a11.2,11.2,0,0,0-.08-1.48,1.85,1.85,0,0,0-.46-1.07,1.66,1.66,0,0,0-1.28-.4,1.81,1.81,0,0,0-1.33.42,2,2,0,0,0-.54,1.13,9.57,9.57,0,0,0-.12,1.6v8.44a7,7,0,0,0,.17,1.74,1.81,1.81,0,0,0,.61,1,1.91,1.91,0,0,0,1.21.34,1.62,1.62,0,0,0,1.26-.42,2.09,2.09,0,0,0,.47-1.11,12.38,12.38,0,0,0,.09-1.56v-1.75H232v1.56a9.57,9.57,0,0,1-.45,3.06,4,4,0,0,1-1.6,2.08A5.72,5.72,0,0,1,226.74,157.68Z"/><path class="cls-6" d="M235.88,157.42,239.77,138h3.79l3.89,19.44h-3.29l-.77-4.49H240l-.79,4.49Zm4.49-6.75H243l-1.32-8.16Z"/><path class="cls-6" d="M251.7,157.42V138h4.65a10.31,10.31,0,0,1,3.32.46,3.86,3.86,0,0,1,2.07,1.6,5.76,5.76,0,0,1,.71,3.07,9,9,0,0,1-.22,2.11,4,4,0,0,1-.73,1.6,3.27,3.27,0,0,1-1.43,1l2.71,9.58h-3.55l-2.35-8.91h-1.63v8.91Zm3.55-11.14h1.1A3.8,3.8,0,0,0,258,146a1.75,1.75,0,0,0,.87-1,4.51,4.51,0,0,0,.26-1.69,3.63,3.63,0,0,0-.54-2.2,2.39,2.39,0,0,0-2-.73h-1.29Z"/></g></svg>