<svg xmlns="http://www.w3.org/2000/svg" xmlns:xlink="http://www.w3.org/1999/xlink" viewBox="0 0 400 300"><defs><style>.cls-1{fill:#fff;}.cls-2{fill:none;}.cls-3{fill:#ea5153;}.cls-4{fill:#2f281e;}.cls-5{clip-path:url(#clip-path);}.cls-6{fill:#95c121;}.cls-7{clip-path:url(#clip-path-2);}</style><clipPath id="clip-path"><rect class="cls-1" x="260.88" y="139.84" width="15.56" height="15.56"/></clipPath><clipPath id="clip-path-2"><rect class="cls-2" x="140.24" y="132.5" width="119.53" height="35"/></clipPath></defs><title>design-casa</title><g id="Layer_1" data-name="Layer 1"><rect class="cls-3" width="400" height="300"/><path class="cls-4" d="M127,149.46v10.61h-3.4V133.74h8.37c3,0,5.27.7,6.76,2.1a7.58,7.58,0,0,1,2.24,5.78,7.37,7.37,0,0,1-2.31,5.77q-2.33,2.07-6.69,2.07Zm9.14-4.15a4.9,4.9,0,0,0,1.36-3.69,5,5,0,0,0-1.36-3.76q-1.36-1.29-4.47-1.29H127v10.05h4.67C133.69,146.62,135.18,146.18,136.09,145.31Z"/><path class="cls-4" d="M151.23,140.4a8.8,8.8,0,0,1,4.63-1.17v3.69h-1a7.23,7.23,0,0,0-4.71,1.48c-1.22,1-1.83,2.61-1.83,4.87v10.8h-3.4V139.56h3.4v4.15A7.53,7.53,0,0,1,151.23,140.4Z"/><path class="cls-4" d="M173.81,140.57a9.21,9.21,0,0,1,3.66,3.66,12.5,12.5,0,0,1,0,11.18,9.18,9.18,0,0,1-3.66,3.65,11.63,11.63,0,0,1-10.57,0,9.17,9.17,0,0,1-3.68-3.65,12.25,12.25,0,0,1,0-11.18,9.19,9.19,0,0,1,3.68-3.66,11.63,11.63,0,0,1,10.57,0Zm-8.67,2.54a6.19,6.19,0,0,0-2.5,2.52,9.69,9.69,0,0,0,0,8.37,6.19,6.19,0,0,0,2.5,2.52,7.38,7.38,0,0,0,6.76,0,6.19,6.19,0,0,0,2.5-2.52,9.6,9.6,0,0,0,0-8.37,6.19,6.19,0,0,0-2.5-2.52,7.38,7.38,0,0,0-6.76,0Z"/><path class="cls-4" d="M194.52,154.58v5.49h-2.88a8.28,8.28,0,0,1-5.7-1.82q-2-1.8-2-6V144.6h-2.8v-5.37h2.8v-5.12h6.39v5.12h4.18v5.37H190.3v7.77a2.33,2.33,0,0,0,.5,1.72,2.43,2.43,0,0,0,1.7.49Z"/><path class="cls-4" d="M198.55,131a4.5,4.5,0,0,1,5.53,0,3.15,3.15,0,0,1,1,2.41,3.08,3.08,0,0,1-1,2.37,4.46,4.46,0,0,1-5.53,0,3.05,3.05,0,0,1-1.05-2.37A3.12,3.12,0,0,1,198.55,131Zm5.94,8.28v20.84H198.1V139.23Z"/><path class="cls-4" d="M226.5,140.25a8.86,8.86,0,0,1,3.22,3.7,14.4,14.4,0,0,1,0,11.37A8.86,8.86,0,0,1,226.5,159a8.4,8.4,0,0,1-4.61,1.29,7.51,7.51,0,0,1-4.11-1.09,6.26,6.26,0,0,1-2.5-3V170h-6.39V139.23h6.39V143a6.26,6.26,0,0,1,2.5-2.95,7.51,7.51,0,0,1,4.11-1.09A8.4,8.4,0,0,1,226.5,140.25Zm-10,5.68a6,6,0,0,0,0,7.41,4.32,4.32,0,0,0,3.31,1.38,4.27,4.27,0,0,0,3.3-1.34,6.21,6.21,0,0,0,0-7.47,4.27,4.27,0,0,0-3.3-1.34A4.34,4.34,0,0,0,216.53,145.93Z"/><path class="cls-4" d="M248.13,140.94a8.64,8.64,0,0,1,3,5.23h-6a3.33,3.33,0,0,0-1.18-2,3.58,3.58,0,0,0-2.29-.72,2.55,2.55,0,0,0-1.65.46,1.65,1.65,0,0,0-.56,1.33,1.55,1.55,0,0,0,1,1.45,16.35,16.35,0,0,0,3.23,1,32.28,32.28,0,0,1,3.92,1.13,6.58,6.58,0,0,1,2.66,1.89,5.24,5.24,0,0,1,1.12,3.51,5.38,5.38,0,0,1-1,3.18,6.33,6.33,0,0,1-2.8,2.16,10.8,10.8,0,0,1-4.33.79,11.19,11.19,0,0,1-6.76-1.87,7.9,7.9,0,0,1-3.1-5.34h6.16a2.77,2.77,0,0,0,1.14,2,4.26,4.26,0,0,0,2.56.71,2.4,2.4,0,0,0,1.64-.5,1.69,1.69,0,0,0,.56-1.33,1.6,1.6,0,0,0-1-1.55,19.32,19.32,0,0,0-3.34-1,26.34,26.34,0,0,1-3.81-1,6.36,6.36,0,0,1-2.58-1.81,5.08,5.08,0,0,1-1.08-3.42,5.57,5.57,0,0,1,2.12-4.54,9.29,9.29,0,0,1,6-1.74A9.56,9.56,0,0,1,248.13,140.94Z"/><rect class="cls-1" x="260.88" y="139.84" width="15.56" height="15.56"/><g class="cls-5"><rect class="cls-1" x="253.1" y="132.05" width="31.12" height="31.12"/></g></g><g id="Layer_4" data-name="Layer 4"><rect class="cls-6" width="400" height="300"/><g class="cls-7"><path class="cls-1" d="M257.12,138.09a2.65,2.65,0,0,1-1.44-.44,2.51,2.51,0,0,1-1-1.16,2.54,2.54,0,0,1-.15-1.49,2.58,2.58,0,0,1,3.53-1.89,2.55,2.55,0,0,1,1.6,2.39,2.59,2.59,0,0,1-2.59,2.59Zm0-5a2.43,2.43,0,0,0-2.23,1.49,2.4,2.4,0,0,0,.52,2.63,2.45,2.45,0,0,0,2.64.53,2.48,2.48,0,0,0,1.08-.89,2.4,2.4,0,0,0,.41-1.34,2.44,2.44,0,0,0-.18-.93,2.52,2.52,0,0,0-1.31-1.31,2.48,2.48,0,0,0-.93-.18Z"/><path class="cls-1" d="M256.61,134.51v.73h.64a.7.7,0,0,0,.29,0,.33.33,0,0,0,.13-.13.28.28,0,0,0,0-.18.32.32,0,0,0,0-.19.29.29,0,0,0-.13-.14.66.66,0,0,0-.28-.05Zm1.21-.4a.83.83,0,0,1,.26.19.79.79,0,0,1,.14.23.71.71,0,0,1,.06.28.93.93,0,0,1-.1.38.55.55,0,0,1-.32.26.51.51,0,0,1,.26.22.88.88,0,0,1,.08.42v.18a1,1,0,0,0,0,.25.36.36,0,0,0,0,.09l.07.07v.06h-.63a.89.89,0,0,1,0-.14,1.81,1.81,0,0,1,0-.23v-.25a.48.48,0,0,0-.09-.35.5.5,0,0,0-.33-.09h-.59v1.06h-.55V134h1.33a1.62,1.62,0,0,1,.44.07Z"/><path class="cls-1" d="M163.75,134.6v8.54a9.69,9.69,0,0,0-6.47-2.52c-12.72,0-12.72,19.27,0,19.27a9.72,9.72,0,0,0,6.47-2.5V166a17,17,0,0,1-23.52-15.72c0-9.27,7.24-17.39,16.74-17.39a18,18,0,0,1,6.77,1.69Z"/><path class="cls-1" d="M190.94,164.22v3h7.62l0-17.23a17.13,17.13,0,1,0-7.64,14.22Zm-18.89-14c0-12.72,19.34-12.72,19.34,0S172.05,162.94,172.05,150.21Z"/><path class="cls-1" d="M252.12,164.22v3h7.62l0-17.23a17.13,17.13,0,1,0-7.65,14.22Zm-18.89-14c0-12.72,19.34-12.72,19.34,0S233.23,162.94,233.23,150.21Z"/><path class="cls-1" d="M210.81,153.27c-5.44-1.44-10.27-2.33-10.27-10.24,0-6.61,5.23-9.5,11.11-10.41,3.81-.59,7.84,1.07,9.66,2.16v6.91a14.42,14.42,0,0,0-7.32-2.5c-2.54-.29-5.33,1.29-5.33,4s4.05,3.47,7.48,4.59c4.62,1.51,8.62,4.33,8.59,9.44a9.29,9.29,0,0,1-4.17,7.7c-3,2-6.64,2.64-11.07,2.56a27.23,27.23,0,0,1-8.84-1.93v-8.92c2.71,2,4.28,3.32,8,3.62,3.3.27,7.58-.16,7.51-3.33,0-2.54-3.34-3.12-5.32-3.64Z"/></g></g></svg>