<?xml version="1.0" encoding="utf-8"?>
<!-- Generator: Adobe Illustrator 24.0.3, SVG Export Plug-In . SVG Version: 6.00 Build 0)  -->
<svg version="1.1" xmlns="http://www.w3.org/2000/svg" xmlns:xlink="http://www.w3.org/1999/xlink" x="0px" y="0px"
	 viewBox="0 0 400 300" style="enable-background:new 0 0 400 300;" xml:space="preserve">
<style type="text/css">
	.st0{fill:#EA5153;}
	.st1{fill:#2F281E;}
	.st2{clip-path:url(#SVGID_2_);fill:#FFFFFF;}
	.st3{display:none;}
	.st4{display:inline;fill:#151515;}
	.st5{display:inline;}
	.st6{fill-rule:evenodd;clip-rule:evenodd;fill:#38509E;}
	.st7{enable-background:new    ;}
	.st8{clip-path:url(#SVGID_4_);}
	.st9{clip-path:url(#SVGID_6_);}
	.st10{clip-path:url(#SVGID_8_);fill:#38509E;}
	.st11{fill:none;}
	.st12{fill:#FFFFFF;}
	.st13{font-family:'Rubik-Light';}
	.st14{font-size:33.1357px;}
	.st15{font-family:'Rubik-Medium';}
	.st16{display:inline;fill:#1D1C30;}
	.st17{display:inline;fill:#95C121;}
	.st18{clip-path:url(#SVGID_10_);}
	.st19{display:inline;fill:#2B2D42;}
	.st20{display:inline;fill:#422D5D;}
	.st21{display:inline;fill:#255A71;}
	.st22{fill:#B4CE46;}
	.st23{display:inline;fill:#F7E324;}
	.st24{display:inline;fill:#DADFE5;}
	.st25{display:inline;fill:#4D533D;}
	.st26{fill-rule:evenodd;clip-rule:evenodd;fill:#FFD725;}
	.st27{fill-rule:evenodd;clip-rule:evenodd;fill:#FFFFFF;}
	.st28{fill-rule:evenodd;clip-rule:evenodd;fill:#F6F6F6;}
	.st29{fill:#111110;}
</style>
<g id="Layer_1">
	<rect class="st0" width="400" height="300"/>
	<g>
		<g>
			<path class="st1" d="M126.95,149.46v10.61h-3.4v-26.33h8.37c3.01,0,5.27,0.7,6.76,2.11c1.49,1.41,2.24,3.33,2.24,5.77
				c0,2.46-0.77,4.39-2.32,5.77c-1.54,1.38-3.77,2.07-6.69,2.07H126.95z M136.09,145.31c0.91-0.87,1.36-2.1,1.36-3.7
				c0-1.64-0.45-2.89-1.36-3.75c-0.91-0.86-2.4-1.29-4.46-1.29h-4.67v10.05h4.67C133.69,146.62,135.18,146.18,136.09,145.31z"/>
			<path class="st1" d="M151.23,140.4c1.29-0.78,2.84-1.18,4.63-1.18v3.7h-1.05c-1.92,0-3.49,0.49-4.71,1.48
				c-1.22,0.98-1.83,2.61-1.83,4.87v10.79h-3.4v-20.5h3.4v4.15C148.95,142.29,149.93,141.19,151.23,140.4z"/>
			<path class="st1" d="M173.81,140.57c1.56,0.85,2.78,2.07,3.66,3.66c0.88,1.59,1.33,3.46,1.33,5.6c0,2.14-0.44,4-1.33,5.58
				c-0.88,1.58-2.1,2.8-3.66,3.64c-1.56,0.85-3.32,1.27-5.28,1.27c-1.97,0-3.73-0.42-5.28-1.27c-1.56-0.85-2.78-2.06-3.68-3.64
				c-0.9-1.58-1.34-3.44-1.34-5.58c0-2.14,0.45-4.01,1.34-5.6c0.9-1.59,2.12-2.81,3.68-3.66c1.56-0.85,3.32-1.27,5.28-1.27
				C170.49,139.3,172.25,139.72,173.81,140.57z M165.14,143.11c-1.03,0.55-1.87,1.39-2.5,2.52c-0.63,1.13-0.95,2.53-0.95,4.2
				c0,1.64,0.32,3.03,0.95,4.16c0.63,1.13,1.47,1.97,2.5,2.52c1.03,0.55,2.16,0.82,3.38,0.82c1.22,0,2.35-0.27,3.38-0.82
				c1.03-0.55,1.87-1.39,2.5-2.52c0.63-1.13,0.95-2.52,0.95-4.16c0-1.67-0.32-3.07-0.95-4.2c-0.63-1.13-1.47-1.97-2.5-2.52
				c-1.03-0.55-2.16-0.82-3.38-0.82C167.3,142.29,166.17,142.56,165.14,143.11z"/>
		</g>
		<g>
			<path class="st1" d="M194.52,154.58v5.49h-2.88c-2.44,0-4.34-0.6-5.7-1.81c-1.36-1.21-2.04-3.21-2.04-5.99v-7.66h-2.8v-5.38h2.8
				v-5.12h6.39v5.12h4.18v5.38h-4.18v7.77c0,0.82,0.17,1.39,0.5,1.72c0.34,0.32,0.9,0.49,1.7,0.49H194.52z"/>
			<path class="st1" d="M198.55,130.95c0.7-0.63,1.62-0.95,2.76-0.95c1.14,0,2.07,0.32,2.76,0.95c0.7,0.63,1.05,1.44,1.05,2.41
				c0,0.95-0.35,1.74-1.05,2.37c-0.7,0.63-1.62,0.95-2.76,0.95c-1.15,0-2.07-0.32-2.76-0.95c-0.7-0.63-1.05-1.43-1.05-2.37
				C197.5,132.39,197.85,131.59,198.55,130.95z M204.49,139.23v20.84h-6.39v-20.84H204.49z"/>
			<path class="st1" d="M226.5,140.25c1.36,0.86,2.43,2.09,3.21,3.7c0.78,1.61,1.18,3.51,1.18,5.7c0,2.17-0.39,4.06-1.18,5.68
				c-0.78,1.62-1.86,2.86-3.21,3.72c-1.36,0.86-2.89,1.29-4.61,1.29c-1.59,0-2.96-0.36-4.11-1.08c-1.15-0.72-1.98-1.71-2.5-2.95V170
				h-6.39v-30.77h6.39V143c0.52-1.24,1.36-2.23,2.5-2.95c1.14-0.72,2.51-1.08,4.11-1.08C223.61,138.96,225.15,139.39,226.5,140.25z
				 M216.53,145.93c-0.86,0.91-1.29,2.15-1.29,3.72c0,1.54,0.43,2.78,1.29,3.7c0.86,0.92,1.96,1.38,3.3,1.38
				c1.37,0,2.47-0.45,3.31-1.34c0.83-0.9,1.25-2.14,1.25-3.73c0-1.59-0.42-2.84-1.25-3.74c-0.83-0.9-1.94-1.34-3.31-1.34
				C218.49,144.57,217.39,145.02,216.53,145.93z"/>
			<path class="st1" d="M248.13,140.94c1.58,1.32,2.57,3.06,2.97,5.23h-5.98c-0.17-0.85-0.57-1.51-1.18-2
				c-0.61-0.49-1.38-0.73-2.3-0.73c-0.72,0-1.27,0.16-1.64,0.47c-0.37,0.31-0.56,0.75-0.56,1.33c0,0.65,0.34,1.13,1.03,1.46
				c0.68,0.32,1.76,0.65,3.23,0.97c1.59,0.37,2.9,0.75,3.92,1.14c1.02,0.39,1.9,1.02,2.65,1.89c0.75,0.87,1.12,2.04,1.12,3.51
				c0,1.19-0.32,2.25-0.97,3.17c-0.65,0.92-1.58,1.64-2.8,2.17c-1.22,0.52-2.66,0.78-4.33,0.78c-2.81,0-5.07-0.62-6.76-1.87
				c-1.69-1.24-2.73-3.02-3.1-5.34h6.16c0.1,0.9,0.48,1.58,1.14,2.05c0.66,0.47,1.51,0.71,2.56,0.71c0.72,0,1.27-0.17,1.64-0.5
				c0.37-0.34,0.56-0.78,0.56-1.33c0-0.72-0.34-1.24-1.03-1.55c-0.69-0.31-1.8-0.64-3.34-0.99c-1.54-0.32-2.81-0.67-3.81-1.05
				c-1-0.37-1.86-0.98-2.58-1.81c-0.72-0.83-1.08-1.97-1.08-3.42c0-1.87,0.71-3.38,2.13-4.54c1.42-1.16,3.42-1.74,6.01-1.74
				C244.44,138.96,246.55,139.62,248.13,140.94z"/>
		</g>
		<g>
			<defs>
				<rect id="SVGID_1_" x="260.88" y="139.84" width="15.56" height="15.56"/>
			</defs>
			<use xlink:href="#SVGID_1_"  style="overflow:visible;fill:#FFFFFF;"/>
			<clipPath id="SVGID_2_">
				<use xlink:href="#SVGID_1_"  style="overflow:visible;"/>
			</clipPath>
			<rect x="253.1" y="132.05" class="st2" width="31.12" height="31.12"/>
		</g>
	</g>
</g>
<g id="Layer_2" class="st3">
	<rect class="st4" width="400" height="300"/>
	<g class="st5">
		<path class="st6" d="M121.88,148.28l-6.03-3.41c-0.44-0.25-0.99-0.25-1.43,0l-6.03,3.41c-0.22,0.13-0.36,0.36-0.36,0.61v6.92
			c0,0.39,0.32,0.7,0.72,0.7h3.12c0.4,0,0.72-0.31,0.72-0.7v-4.33c0-0.39,0.32-0.7,0.72-0.7h3.66c0.4,0,0.72,0.31,0.72,0.7v4.33
			c0,0.39,0.32,0.7,0.72,0.7h3.12c0.4,0,0.72-0.31,0.72-0.7v-6.92C122.24,148.63,122.1,148.4,121.88,148.28"/>
		<g class="st7">
			<g>
				<defs>
					<rect id="SVGID_3_" x="93.71" y="124.56" width="43.79" height="50.89"/>
				</defs>
				<clipPath id="SVGID_4_">
					<use xlink:href="#SVGID_3_"  style="overflow:visible;"/>
				</clipPath>
				<g class="st8">
					<defs>
						<path id="SVGID_5_" d="M134.49,136.58L117,126.39c-1.17-0.68-2.62-0.68-3.79,0l-17.49,10.19c-1.17,0.68-1.89,1.94-1.89,3.31
							v20.37c0,1.36,0.72,2.63,1.89,3.31l17.49,10.19c1.17,0.68,2.62,0.68,3.79,0l17.49-10.19c1.17-0.68,1.89-1.94,1.89-3.31v-20.37
							C136.38,138.52,135.66,137.26,134.49,136.58z M128.14,148.38v4.47v2.92c0,0.51-0.27,0.98-0.7,1.23l-5.3,3.09l-6.34,3.69
							c-0.44,0.25-0.97,0.25-1.41,0l-6.34-3.69v-0.02l-5.27-3.07c-0.44-0.25-0.7-0.72-0.7-1.23v-2.92v-4.47v-2.92
							c0-0.51,0.27-0.98,0.7-1.23l5.64-3.28c0.44-0.25,0.97-0.25,1.41,0l4.58,2.67c0.44,0.25,0.97,0.25,1.41,0l4.58-2.67
							c0.44-0.25,0.97-0.25,1.41,0l5.64,3.28c0.44,0.25,0.7,0.72,0.7,1.23V148.38z"/>
					</defs>
					<clipPath id="SVGID_6_">
						<use xlink:href="#SVGID_5_"  style="overflow:visible;"/>
					</clipPath>
					<g class="st9">
						<defs>
							<rect id="SVGID_7_" x="93.71" y="125.74" width="43.79" height="48.52"/>
						</defs>
						<clipPath id="SVGID_8_">
							<use xlink:href="#SVGID_7_"  style="overflow:visible;"/>
						</clipPath>
						<rect x="87.92" y="119.96" class="st10" width="54.38" height="60.22"/>
					</g>
				</g>
			</g>
		</g>
		<rect x="93.83" y="125.88" class="st11" width="42.55" height="48.38"/>
		<text transform="matrix(1 0 0 1 149.4561 161.2422)" class="st12 st13 st14">casa</text>
		<text transform="matrix(1 0 0 1 219.04 161.2422)"><tspan x="0" y="0" class="st12 st15 st14">R</tspan><tspan x="22.17" y="0" class="st12 st15 st14">oy</tspan><tspan x="59.48" y="0" class="st12 st15 st14">al</tspan></text>
	</g>
</g>
<g id="Layer_3" class="st3">
	<rect class="st16" width="400" height="300"/>
	<g class="st5">
		<path class="st12" d="M142.34,161.35c-0.37,0-0.65-0.09-0.84-0.26c-0.17-0.19-0.27-0.43-0.29-0.71L139,139.52
			c-0.02-0.26,0.04-0.46,0.19-0.62c0.15-0.17,0.35-0.26,0.58-0.26h3.89c0.32,0,0.56,0.09,0.71,0.26c0.17,0.15,0.27,0.35,0.29,0.58
			l1.39,14.98l7.78-14.98c0.3-0.56,0.74-0.84,1.3-0.84h4.35c0.17,0,0.3,0.05,0.39,0.16c0.11,0.11,0.16,0.25,0.16,0.42
			c0,0.13-0.03,0.26-0.1,0.39l-11.03,20.76c-0.37,0.65-0.88,0.97-1.52,0.97H142.34z"/>
		<path class="st12" d="M153.9,161.35c-0.19,0-0.35-0.05-0.45-0.16c-0.11-0.13-0.16-0.28-0.16-0.45c0-0.11,0.03-0.23,0.1-0.36
			l12.03-20.82c0.35-0.61,0.83-0.91,1.46-0.91h4.99c0.63,0,0.98,0.3,1.07,0.91l3.18,20.82c0.04,0.3-0.01,0.54-0.16,0.71
			c-0.15,0.17-0.35,0.26-0.58,0.26h-3.92c-0.56,0-0.89-0.26-0.97-0.78l-0.55-3.21h-8.66l-1.95,3.31c-0.32,0.45-0.72,0.68-1.2,0.68
			H153.9z M169.6,152.69l-1.2-8.56l-4.83,8.56H169.6z"/>
		<path class="st12" d="M179.03,161.35c-0.24,0-0.42-0.08-0.55-0.23c-0.13-0.15-0.17-0.35-0.13-0.58l4.48-21.08
			c0.04-0.24,0.16-0.43,0.36-0.58c0.19-0.15,0.41-0.23,0.65-0.23h3.5c0.52,0,0.85,0.24,1.01,0.71l3.54,10.22l7.88-10.22
			c0.11-0.17,0.26-0.34,0.45-0.49c0.22-0.15,0.48-0.23,0.78-0.23h3.54c0.24,0,0.42,0.08,0.55,0.23c0.09,0.13,0.13,0.26,0.13,0.39
			c0,0.06-0.01,0.13-0.03,0.19l-4.48,21.08c-0.04,0.24-0.16,0.43-0.36,0.58c-0.19,0.15-0.4,0.23-0.62,0.23h-3.92
			c-0.24,0-0.42-0.08-0.55-0.23c-0.11-0.17-0.14-0.37-0.1-0.58l2.53-11.97l-4.96,6.58c-0.22,0.24-0.42,0.42-0.62,0.55
			s-0.42,0.19-0.68,0.19h-1.69c-0.45,0-0.77-0.25-0.94-0.75l-2.3-6.88l-2.59,12.26c-0.04,0.24-0.16,0.43-0.36,0.58
			c-0.19,0.15-0.4,0.23-0.62,0.23H179.03z"/>
		<path class="st12" d="M203.48,161.35c-0.19,0-0.35-0.05-0.45-0.16c-0.11-0.13-0.16-0.28-0.16-0.45c0-0.11,0.03-0.23,0.1-0.36
			L215,139.56c0.35-0.61,0.83-0.91,1.46-0.91h4.99c0.63,0,0.98,0.3,1.07,0.91l3.18,20.82c0.04,0.3-0.01,0.54-0.16,0.71
			c-0.15,0.17-0.35,0.26-0.58,0.26h-3.92c-0.56,0-0.89-0.26-0.97-0.78l-0.55-3.21h-8.66l-1.95,3.31c-0.32,0.45-0.72,0.68-1.2,0.68
			H203.48z M219.18,152.69l-1.2-8.56l-4.83,8.56H219.18z"/>
		<path class="st12" d="M228.58,161.35c-0.24,0-0.42-0.08-0.55-0.23c-0.11-0.17-0.14-0.37-0.1-0.58l4.48-21.08
			c0.04-0.24,0.16-0.43,0.36-0.58c0.19-0.15,0.4-0.23,0.62-0.23h7.91c1.69,0,3.2,0.28,4.54,0.84c1.36,0.54,2.43,1.35,3.21,2.43
			c0.8,1.08,1.2,2.37,1.2,3.86c0,0.5-0.05,1.07-0.16,1.72c-0.3,1.75-0.65,3.41-1.04,4.96c-0.76,3.09-2.01,5.35-3.76,6.78
			c-1.75,1.41-4.28,2.11-7.59,2.11H228.58z M237.98,156.68c1.43,0,2.55-0.34,3.37-1.01c0.82-0.69,1.42-1.78,1.78-3.28
			c0.45-1.92,0.8-3.53,1.04-4.83c0.09-0.61,0.13-1.02,0.13-1.23c0-1.04-0.3-1.79-0.91-2.27c-0.6-0.5-1.51-0.75-2.72-0.75h-3.24
			l-2.85,13.36H237.98z"/>
		<path class="st12" d="M251.14,161.35c-0.24,0-0.42-0.08-0.55-0.23c-0.13-0.17-0.17-0.37-0.13-0.58l4.51-21.08
			c0.04-0.24,0.16-0.43,0.36-0.58c0.19-0.15,0.4-0.23,0.62-0.23h4.38c0.24,0,0.42,0.08,0.55,0.23c0.09,0.13,0.13,0.26,0.13,0.39
			c0,0.06-0.01,0.13-0.03,0.19l-4.48,21.08c-0.04,0.24-0.16,0.43-0.36,0.58c-0.19,0.15-0.4,0.23-0.62,0.23H251.14z"/>
	</g>
</g>
<g id="Layer_4" class="st3">
	<rect class="st17" width="400" height="300"/>
	<g class="st5">
		<g>
			<defs>
				<rect id="SVGID_9_" x="140.24" y="132.5" width="119.53" height="35"/>
			</defs>
			<clipPath id="SVGID_10_">
				<use xlink:href="#SVGID_9_"  style="overflow:visible;"/>
			</clipPath>
			<g class="st18">
				<path class="st12" d="M257.12,138.09c-0.51,0-1.01-0.15-1.44-0.44c-0.43-0.28-0.76-0.69-0.95-1.16
					c-0.2-0.47-0.25-0.99-0.15-1.49c0.1-0.5,0.35-0.96,0.71-1.32c0.36-0.36,0.82-0.61,1.33-0.71c0.5-0.1,1.02-0.05,1.5,0.15
					c0.47,0.2,0.88,0.53,1.16,0.95c0.29,0.43,0.44,0.93,0.44,1.44c0,0.69-0.27,1.34-0.76,1.83S257.81,138.09,257.12,138.09z
					 M257.12,133.09c-0.48,0-0.95,0.14-1.34,0.41c-0.4,0.27-0.71,0.64-0.89,1.08c-0.18,0.44-0.23,0.93-0.14,1.39
					c0.09,0.47,0.32,0.9,0.66,1.24c0.34,0.34,0.77,0.57,1.24,0.66c0.47,0.09,0.95,0.05,1.4-0.14c0.44-0.18,0.82-0.49,1.08-0.89
					c0.27-0.4,0.41-0.86,0.41-1.34c0-0.32-0.06-0.63-0.18-0.93c-0.12-0.29-0.3-0.56-0.52-0.78s-0.49-0.4-0.79-0.53
					S257.44,133.09,257.12,133.09L257.12,133.09z"/>
				<path class="st12" d="M256.61,134.51v0.73h0.64c0.1,0.01,0.19-0.01,0.29-0.04c0.06-0.03,0.1-0.07,0.13-0.13
					c0.03-0.05,0.04-0.12,0.04-0.18c0.01-0.07,0-0.13-0.03-0.19c-0.03-0.06-0.08-0.11-0.13-0.14c-0.09-0.04-0.18-0.05-0.28-0.05
					L256.61,134.51z M257.82,134.11c0.1,0.04,0.19,0.11,0.26,0.19c0.06,0.07,0.11,0.14,0.14,0.23c0.04,0.09,0.05,0.19,0.05,0.28
					c0,0.13-0.03,0.26-0.1,0.38c-0.07,0.13-0.18,0.22-0.32,0.26c0.11,0.04,0.2,0.11,0.26,0.21c0.06,0.13,0.09,0.28,0.08,0.42v0.18
					c0,0.08,0,0.17,0.01,0.25c0.01,0.03,0.02,0.06,0.04,0.09c0.02,0.03,0.04,0.05,0.07,0.07v0.07h-0.62
					c-0.02-0.06-0.03-0.11-0.04-0.14c-0.01-0.08-0.02-0.15-0.02-0.23v-0.25c0.01-0.12-0.02-0.25-0.1-0.34
					c-0.1-0.07-0.21-0.1-0.33-0.09h-0.58v1.06h-0.55v-2.7h1.33c0.15,0,0.3,0.02,0.44,0.07H257.82z"/>
				<path class="st12" d="M163.75,134.6v8.54c-1.77-1.61-4.07-2.51-6.47-2.52c-12.72,0-12.72,19.27,0,19.27
					c2.39-0.01,4.7-0.9,6.47-2.5l0.01,8.63c-2.59,1.06-5.4,1.47-8.18,1.19c-2.78-0.28-5.46-1.24-7.78-2.79s-4.23-3.65-5.55-6.12
					c-1.32-2.46-2.01-5.21-2.01-8c0-9.27,7.24-17.4,16.74-17.4C159.31,132.91,161.62,133.71,163.75,134.6L163.75,134.6z"/>
				<path class="st12" d="M190.94,164.22v3.01h7.62l0.02-17.23c0-4.53-1.8-8.88-5.02-12.09c-3.21-3.21-7.57-5.01-12.11-5.01
					c-4.54,0-8.9,1.8-12.11,5.01c-3.21,3.21-5.02,7.55-5.02,12.09C164.33,163.62,179.58,171.78,190.94,164.22z M172.05,150.21
					c0-12.72,19.34-12.72,19.34,0S172.05,162.94,172.05,150.21z"/>
				<path class="st12" d="M252.12,164.22v3.01h7.62l0.02-17.23c0-4.53-1.8-8.88-5.02-12.09c-3.21-3.21-7.57-5.01-12.11-5.01
					c-4.54,0-8.9,1.8-12.11,5.01c-3.21,3.21-5.02,7.55-5.02,12.09C225.51,163.62,240.76,171.78,252.12,164.22L252.12,164.22z
					 M233.23,150.21c0-12.72,19.34-12.72,19.34,0C252.57,162.92,233.23,162.94,233.23,150.21z"/>
				<path class="st12" d="M210.81,153.27c-5.44-1.44-10.27-2.33-10.27-10.24c0-6.61,5.24-9.5,11.11-10.41
					c3.81-0.59,7.84,1.08,9.66,2.16v6.91c-1.75-1.09-3.17-2.02-7.32-2.5c-2.54-0.29-5.33,1.29-5.33,4c0,2.71,4.05,3.48,7.48,4.59
					c4.63,1.51,8.62,4.33,8.6,9.44c-0.01,1.53-0.39,3.03-1.12,4.37c-0.73,1.34-1.78,2.49-3.05,3.33c-3.02,1.96-6.64,2.64-11.07,2.56
					c-3.53-0.07-6.32-1.05-8.84-1.93v-8.91c2.71,1.97,4.28,3.32,7.97,3.62c3.3,0.27,7.58-0.17,7.52-3.34
					C216.08,154.38,212.79,153.8,210.81,153.27L210.81,153.27z"/>
			</g>
		</g>
	</g>
</g>
<g id="Layer_4_copy" class="st3">
	<rect class="st19" width="400" height="300"/>
	<g class="st5">
		<g>
			<path class="st12" d="M134.12,157.42v-19.44h4.78c0.86,0,1.64,0.08,2.34,0.24c0.7,0.16,1.3,0.43,1.8,0.8s0.89,0.88,1.16,1.52
				c0.27,0.64,0.41,1.45,0.41,2.42c0,0.78-0.11,1.46-0.32,2.02c-0.22,0.56-0.53,1-0.95,1.33c-0.42,0.33-0.94,0.55-1.56,0.66
				c0.77,0.13,1.4,0.4,1.91,0.8c0.5,0.41,0.88,0.94,1.13,1.6c0.25,0.66,0.37,1.45,0.37,2.38c0,0.93-0.12,1.75-0.35,2.46
				c-0.23,0.71-0.58,1.3-1.03,1.78s-1.02,0.83-1.7,1.07c-0.68,0.24-1.48,0.36-2.39,0.36H134.12z M137.67,145.92h1.2
				c0.7,0,1.25-0.1,1.63-0.31c0.38-0.21,0.65-0.53,0.8-0.96c0.15-0.43,0.23-0.98,0.23-1.63c0-0.69-0.12-1.22-0.35-1.6
				c-0.23-0.38-0.58-0.63-1.04-0.77c-0.46-0.14-1.06-0.2-1.78-0.2h-0.7V145.92z M137.67,154.92h1.34c1.07,0,1.8-0.26,2.18-0.78
				c0.38-0.52,0.58-1.32,0.58-2.41c0-0.78-0.09-1.42-0.28-1.91c-0.18-0.49-0.49-0.85-0.91-1.09c-0.42-0.24-0.99-0.36-1.69-0.36
				h-1.22V154.92z"/>
			<path class="st12" d="M152.77,157.68c-1.38,0-2.47-0.26-3.29-0.77s-1.4-1.25-1.75-2.21c-0.35-0.96-0.53-2.1-0.53-3.41v-7.27
				c0-1.31,0.18-2.44,0.53-3.37c0.35-0.94,0.94-1.65,1.75-2.15c0.82-0.5,1.91-0.74,3.29-0.74c1.41,0,2.52,0.25,3.32,0.74
				c0.81,0.5,1.39,1.21,1.75,2.15c0.36,0.94,0.54,2.06,0.54,3.37v7.3c0,1.3-0.18,2.42-0.54,3.37c-0.36,0.95-0.94,1.69-1.75,2.21
				S154.18,157.68,152.77,157.68z M152.77,155.06c0.59,0,1.03-0.13,1.31-0.38s0.47-0.61,0.56-1.06c0.1-0.45,0.14-0.94,0.14-1.46
				v-8.95c0-0.54-0.05-1.03-0.14-1.46c-0.1-0.43-0.28-0.77-0.56-1.02s-0.72-0.37-1.31-0.37c-0.56,0-0.98,0.12-1.27,0.37
				c-0.29,0.25-0.48,0.59-0.58,1.02c-0.1,0.43-0.14,0.92-0.14,1.46v8.95c0,0.53,0.04,1.02,0.13,1.46c0.09,0.45,0.28,0.8,0.56,1.06
				C151.76,154.94,152.19,155.06,152.77,155.06z"/>
			<path class="st12" d="M160.02,157.42l3.89-19.44h3.79l3.89,19.44h-3.29l-0.77-4.49h-3.38l-0.79,4.49H160.02z M164.5,150.67h2.64
				l-1.32-8.16L164.5,150.67z"/>
			<path class="st12" d="M173.53,157.42v-19.44h4.66c1.31,0,2.42,0.16,3.32,0.47s1.59,0.84,2.06,1.6c0.47,0.75,0.71,1.78,0.71,3.07
				c0,0.78-0.07,1.49-0.22,2.11s-0.39,1.16-0.73,1.6c-0.34,0.44-0.82,0.78-1.43,1.02l2.71,9.58h-3.55l-2.35-8.9h-1.63v8.9H173.53z
				 M177.08,146.28h1.1c0.69,0,1.24-0.1,1.64-0.3c0.41-0.2,0.7-0.52,0.88-0.96c0.18-0.44,0.26-1,0.26-1.69
				c0-0.98-0.18-1.71-0.54-2.2c-0.36-0.49-1.04-0.73-2.05-0.73h-1.3V146.28z"/>
			<path class="st12" d="M186.99,157.42v-19.44h4.58c1.58,0,2.82,0.22,3.71,0.65c0.89,0.43,1.52,1.1,1.9,1.99s0.56,2.03,0.56,3.41
				v7.1c0,1.41-0.19,2.58-0.56,3.52c-0.38,0.94-1,1.63-1.87,2.09s-2.07,0.68-3.59,0.68H186.99z M190.54,154.94h1.08
				c0.82,0,1.4-0.14,1.75-0.43c0.35-0.29,0.57-0.71,0.65-1.26c0.08-0.55,0.12-1.23,0.12-2.03v-7.44c0-0.78-0.06-1.42-0.17-1.9
				c-0.11-0.48-0.34-0.83-0.7-1.06c-0.35-0.22-0.92-0.34-1.7-0.34h-1.03V154.94z"/>
			<path class="st12" d="M200.36,157.42v-19.44h4.66c1.31,0,2.42,0.16,3.32,0.47c0.9,0.31,1.59,0.84,2.06,1.6
				c0.47,0.75,0.71,1.78,0.71,3.07c0,0.78-0.07,1.49-0.22,2.11c-0.14,0.62-0.39,1.16-0.73,1.6c-0.34,0.44-0.82,0.78-1.43,1.02
				l2.71,9.58h-3.55l-2.35-8.9h-1.63v8.9H200.36z M203.91,146.28h1.1c0.69,0,1.24-0.1,1.64-0.3c0.41-0.2,0.7-0.52,0.88-0.96
				c0.18-0.44,0.26-1,0.26-1.69c0-0.98-0.18-1.71-0.54-2.2c-0.36-0.49-1.04-0.73-2.05-0.73h-1.3V146.28z"/>
			<path class="st12" d="M213.92,157.42v-19.44h3.5v19.44H213.92z"/>
			<path class="st12" d="M220.42,157.42v-19.44h4.58c1.58,0,2.82,0.22,3.71,0.65c0.89,0.43,1.52,1.1,1.9,1.99s0.56,2.03,0.56,3.41
				v7.1c0,1.41-0.19,2.58-0.56,3.52c-0.38,0.94-1,1.63-1.87,2.09s-2.07,0.68-3.59,0.68H220.42z M223.98,154.94h1.08
				c0.82,0,1.4-0.14,1.75-0.43c0.35-0.29,0.57-0.71,0.65-1.26c0.08-0.55,0.12-1.23,0.12-2.03v-7.44c0-0.78-0.06-1.42-0.17-1.9
				c-0.11-0.48-0.34-0.83-0.7-1.06s-0.92-0.34-1.7-0.34h-1.03V154.94z"/>
			<path class="st12" d="M233.79,157.42v-19.44h8.16v2.5h-4.61v5.59h3.62v2.47h-3.62v6.43H242v2.45H233.79z"/>
			<path class="st12" d="M244.06,157.42v-19.44h4.66c1.31,0,2.42,0.16,3.32,0.47c0.9,0.31,1.59,0.84,2.06,1.6
				c0.47,0.75,0.71,1.78,0.71,3.07c0,0.78-0.07,1.49-0.22,2.11c-0.14,0.62-0.39,1.16-0.73,1.6c-0.34,0.44-0.82,0.78-1.43,1.02
				l2.71,9.58h-3.55l-2.35-8.9h-1.63v8.9H244.06z M247.62,146.28h1.1c0.69,0,1.24-0.1,1.64-0.3c0.41-0.2,0.7-0.52,0.88-0.96
				c0.18-0.44,0.26-1,0.26-1.69c0-0.98-0.18-1.71-0.54-2.2c-0.36-0.49-1.04-0.73-2.05-0.73h-1.3V146.28z"/>
			<path class="st12" d="M262.42,157.68c-1.17,0-2.14-0.23-2.93-0.68c-0.78-0.46-1.38-1.12-1.78-2c-0.4-0.88-0.62-1.96-0.67-3.24
				l3.05-0.6c0.03,0.75,0.12,1.42,0.28,1.99c0.15,0.58,0.38,1.02,0.7,1.33c0.31,0.31,0.72,0.47,1.24,0.47
				c0.58,0,0.98-0.17,1.22-0.52c0.24-0.34,0.36-0.78,0.36-1.31c0-0.85-0.19-1.54-0.58-2.09s-0.9-1.09-1.54-1.63l-2.45-2.16
				c-0.69-0.59-1.24-1.25-1.64-1.98s-0.61-1.63-0.61-2.7c0-1.54,0.45-2.72,1.34-3.55c0.9-0.83,2.12-1.25,3.67-1.25
				c0.91,0,1.67,0.14,2.28,0.42c0.61,0.28,1.09,0.67,1.45,1.16c0.36,0.5,0.63,1.06,0.8,1.69c0.18,0.63,0.29,1.3,0.34,2l-3.02,0.53
				c-0.03-0.61-0.1-1.15-0.2-1.63c-0.1-0.48-0.29-0.86-0.55-1.13s-0.65-0.41-1.16-0.41c-0.53,0-0.93,0.17-1.21,0.52
				c-0.28,0.34-0.42,0.77-0.42,1.28c0,0.66,0.14,1.2,0.41,1.62c0.27,0.42,0.66,0.86,1.18,1.31l2.42,2.14
				c0.8,0.67,1.48,1.46,2.05,2.36c0.57,0.9,0.85,2,0.85,3.28c0,0.93-0.2,1.75-0.61,2.47c-0.41,0.72-0.98,1.28-1.7,1.69
				C264.25,157.48,263.4,157.68,262.42,157.68z"/>
		</g>
	</g>
</g>
<g id="Layer_4_copy_2" class="st3">
	<rect class="st20" width="400" height="300"/>
	<g class="st5">
		<g>
			<path class="st12" d="M170.7,157.68c-1.17,0-2.14-0.23-2.93-0.68c-0.78-0.46-1.38-1.12-1.78-2s-0.62-1.96-0.67-3.24l3.05-0.6
				c0.03,0.75,0.12,1.42,0.28,1.99c0.15,0.58,0.38,1.02,0.7,1.33c0.31,0.31,0.72,0.47,1.24,0.47c0.58,0,0.98-0.17,1.22-0.52
				c0.24-0.34,0.36-0.78,0.36-1.31c0-0.85-0.19-1.54-0.58-2.09c-0.38-0.54-0.9-1.09-1.54-1.63l-2.45-2.16
				c-0.69-0.59-1.24-1.25-1.64-1.98c-0.41-0.73-0.61-1.63-0.61-2.7c0-1.54,0.45-2.72,1.34-3.55c0.9-0.83,2.12-1.25,3.67-1.25
				c0.91,0,1.67,0.14,2.28,0.42c0.61,0.28,1.09,0.67,1.45,1.16c0.36,0.5,0.63,1.06,0.8,1.69c0.18,0.63,0.29,1.3,0.34,2l-3.02,0.53
				c-0.03-0.61-0.1-1.15-0.2-1.63s-0.29-0.86-0.55-1.13c-0.26-0.27-0.65-0.41-1.16-0.41c-0.53,0-0.93,0.17-1.21,0.52
				c-0.28,0.34-0.42,0.77-0.42,1.28c0,0.66,0.14,1.2,0.41,1.62c0.27,0.42,0.66,0.86,1.18,1.31l2.42,2.14
				c0.8,0.67,1.48,1.46,2.05,2.36c0.57,0.9,0.85,2,0.85,3.28c0,0.93-0.2,1.75-0.61,2.47c-0.41,0.72-0.98,1.28-1.7,1.69
				C172.52,157.48,171.67,157.68,170.7,157.68z"/>
			<path class="st12" d="M180.06,157.42v-19.44h3.55v16.99h4.7v2.45H180.06z"/>
			<path class="st12" d="M197.84,157.68c-1.38,0-2.47-0.26-3.29-0.77c-0.82-0.51-1.4-1.25-1.75-2.21c-0.35-0.96-0.53-2.1-0.53-3.41
				v-7.27c0-1.31,0.18-2.44,0.53-3.37c0.35-0.94,0.94-1.65,1.75-2.15c0.82-0.5,1.91-0.74,3.29-0.74c1.41,0,2.52,0.25,3.32,0.74
				c0.81,0.5,1.39,1.21,1.75,2.15c0.36,0.94,0.54,2.06,0.54,3.37v7.3c0,1.3-0.18,2.42-0.54,3.37c-0.36,0.95-0.94,1.69-1.75,2.21
				C200.36,157.42,199.25,157.68,197.84,157.68z M197.84,155.06c0.59,0,1.03-0.13,1.31-0.38s0.47-0.61,0.56-1.06
				c0.1-0.45,0.14-0.94,0.14-1.46v-8.95c0-0.54-0.05-1.03-0.14-1.46c-0.1-0.43-0.28-0.77-0.56-1.02s-0.72-0.37-1.31-0.37
				c-0.56,0-0.98,0.12-1.27,0.37c-0.29,0.25-0.48,0.59-0.58,1.02c-0.1,0.43-0.14,0.92-0.14,1.46v8.95c0,0.53,0.04,1.02,0.13,1.46
				s0.28,0.8,0.56,1.06C196.83,154.94,197.26,155.06,197.84,155.06z"/>
			<path class="st12" d="M210.42,157.42v-16.82h-3.1v-2.62h9.7v2.62h-3.05v16.82H210.42z"/>
			<path class="st12" d="M221.24,157.42v-19.44h3.53v8.14h3.96v-8.14h3.55v19.44h-3.55v-8.78h-3.96v8.78H221.24z"/>
		</g>
	</g>
</g>
<g id="Layer_4_copy_3" class="st3">
	<rect class="st21" width="400" height="300"/>
	<g class="st5">
		<g>
			<path class="st22" d="M135.42,157.42v-19.44h4.78c0.86,0,1.64,0.08,2.34,0.24c0.7,0.16,1.3,0.43,1.8,0.8s0.89,0.88,1.16,1.52
				c0.27,0.64,0.41,1.45,0.41,2.42c0,0.78-0.11,1.46-0.32,2.02c-0.22,0.56-0.53,1-0.95,1.33c-0.42,0.33-0.94,0.55-1.56,0.66
				c0.77,0.13,1.4,0.4,1.91,0.8c0.5,0.41,0.88,0.94,1.13,1.6c0.25,0.66,0.37,1.45,0.37,2.38c0,0.93-0.12,1.75-0.35,2.46
				c-0.23,0.71-0.58,1.3-1.03,1.78s-1.02,0.83-1.7,1.07c-0.68,0.24-1.48,0.36-2.39,0.36H135.42z M138.97,145.92h1.2
				c0.7,0,1.25-0.1,1.63-0.31c0.38-0.21,0.65-0.53,0.8-0.96c0.15-0.43,0.23-0.98,0.23-1.63c0-0.69-0.12-1.22-0.35-1.6
				c-0.23-0.38-0.58-0.63-1.04-0.77c-0.46-0.14-1.06-0.2-1.78-0.2h-0.7V145.92z M138.97,154.92h1.34c1.07,0,1.8-0.26,2.18-0.78
				c0.38-0.52,0.58-1.32,0.58-2.41c0-0.78-0.09-1.42-0.28-1.91c-0.18-0.49-0.49-0.85-0.91-1.09c-0.42-0.24-0.99-0.36-1.69-0.36
				h-1.22V154.92z"/>
			<path class="st22" d="M151.18,157.42v-19.44h3.55v16.99h4.7v2.45H151.18z"/>
			<path class="st22" d="M162.7,157.42l3.89-19.44h3.79l3.89,19.44h-3.29l-0.77-4.49h-3.38l-0.79,4.49H162.7z M167.19,150.67h2.64
				l-1.32-8.16L167.19,150.67z"/>
			<path class="st22" d="M178.62,157.42v-19.44h4.78c0.86,0,1.64,0.08,2.34,0.24c0.7,0.16,1.3,0.43,1.8,0.8s0.89,0.88,1.16,1.52
				c0.27,0.64,0.41,1.45,0.41,2.42c0,0.78-0.11,1.46-0.32,2.02c-0.22,0.56-0.53,1-0.95,1.33c-0.42,0.33-0.94,0.55-1.56,0.66
				c0.77,0.13,1.4,0.4,1.91,0.8c0.5,0.41,0.88,0.94,1.13,1.6c0.25,0.66,0.37,1.45,0.37,2.38c0,0.93-0.12,1.75-0.35,2.46
				c-0.23,0.71-0.58,1.3-1.03,1.78s-1.02,0.83-1.7,1.07c-0.68,0.24-1.48,0.36-2.39,0.36H178.62z M182.17,145.92h1.2
				c0.7,0,1.25-0.1,1.63-0.31c0.38-0.21,0.65-0.53,0.8-0.96c0.15-0.43,0.23-0.98,0.23-1.63c0-0.69-0.12-1.22-0.35-1.6
				c-0.23-0.38-0.58-0.63-1.04-0.77c-0.46-0.14-1.06-0.2-1.78-0.2h-0.7V145.92z M182.17,154.92h1.34c1.07,0,1.8-0.26,2.18-0.78
				c0.38-0.52,0.58-1.32,0.58-2.41c0-0.78-0.09-1.42-0.28-1.91c-0.18-0.49-0.49-0.85-0.91-1.09c-0.42-0.24-0.99-0.36-1.69-0.36
				h-1.22V154.92z"/>
			<path class="st22" d="M194.38,157.42v-19.44h3.55v16.99h4.7v2.45H194.38z"/>
			<path class="st22" d="M205.9,157.42l3.89-19.44h3.79l3.89,19.44h-3.29l-0.77-4.49h-3.38l-0.79,4.49H205.9z M210.39,150.67h2.64
				l-1.32-8.16L210.39,150.67z"/>
			<path class="st22" d="M227.05,157.68c-1.42,0-2.54-0.28-3.35-0.84c-0.81-0.56-1.37-1.32-1.69-2.29
				c-0.32-0.97-0.48-2.08-0.48-3.35v-6.94c0-1.33,0.16-2.48,0.48-3.46c0.32-0.98,0.88-1.73,1.69-2.26c0.81-0.53,1.92-0.79,3.35-0.79
				c1.34,0,2.4,0.23,3.16,0.68s1.3,1.11,1.62,1.96c0.32,0.85,0.48,1.83,0.48,2.95v1.63h-3.41v-1.68c0-0.54-0.03-1.04-0.08-1.49
				c-0.06-0.45-0.21-0.8-0.46-1.07s-0.68-0.4-1.28-0.4c-0.61,0-1.05,0.14-1.33,0.42c-0.28,0.28-0.46,0.66-0.54,1.13
				c-0.08,0.47-0.12,1-0.12,1.6v8.45c0,0.7,0.06,1.28,0.17,1.74s0.32,0.8,0.61,1.03c0.3,0.23,0.7,0.35,1.21,0.35
				c0.59,0,1.01-0.14,1.26-0.42s0.4-0.65,0.47-1.12c0.06-0.46,0.1-0.98,0.1-1.56v-1.75h3.41v1.56c0,1.15-0.15,2.17-0.46,3.06
				c-0.3,0.89-0.84,1.58-1.6,2.09C229.49,157.43,228.42,157.68,227.05,157.68z"/>
			<path class="st22" d="M236.19,157.42l3.89-19.44h3.79l3.89,19.44h-3.29l-0.77-4.49h-3.38l-0.79,4.49H236.19z M240.68,150.67h2.64
				l-1.32-8.16L240.68,150.67z"/>
			<path class="st22" d="M252.1,157.42v-19.44h4.66c1.31,0,2.42,0.16,3.32,0.47c0.9,0.31,1.59,0.84,2.06,1.6
				c0.47,0.75,0.71,1.78,0.71,3.07c0,0.78-0.07,1.49-0.22,2.11c-0.14,0.62-0.39,1.16-0.73,1.6c-0.34,0.44-0.82,0.78-1.43,1.02
				l2.71,9.58h-3.55l-2.35-8.9h-1.63v8.9H252.1z M255.66,146.28h1.1c0.69,0,1.24-0.1,1.64-0.3c0.41-0.2,0.7-0.52,0.88-0.96
				c0.18-0.44,0.26-1,0.26-1.69c0-0.98-0.18-1.71-0.54-2.2c-0.36-0.49-1.04-0.73-2.05-0.73h-1.3V146.28z"/>
		</g>
	</g>
</g>
<g id="Layer_4_copy_4" class="st3">
	<rect class="st23" width="400" height="300"/>
	<g class="st5">
		<g>
			<path d="M167.3,157.42v-19.44h2.47l4.73,11.09v-11.09h2.93v19.44h-2.35l-4.75-11.62v11.62H167.3z"/>
			<path d="M188.06,157.68c-1.38,0-2.47-0.26-3.29-0.77c-0.82-0.51-1.4-1.25-1.75-2.21c-0.35-0.96-0.53-2.1-0.53-3.41v-7.27
				c0-1.31,0.18-2.44,0.53-3.37c0.35-0.94,0.94-1.65,1.75-2.15c0.82-0.5,1.91-0.74,3.29-0.74c1.41,0,2.52,0.25,3.32,0.74
				c0.81,0.5,1.39,1.21,1.75,2.15c0.36,0.94,0.54,2.06,0.54,3.37v7.3c0,1.3-0.18,2.42-0.54,3.37c-0.36,0.95-0.94,1.69-1.75,2.21
				C190.58,157.42,189.47,157.68,188.06,157.68z M188.06,155.06c0.59,0,1.03-0.13,1.31-0.38s0.47-0.61,0.56-1.06
				c0.1-0.45,0.14-0.94,0.14-1.46v-8.95c0-0.54-0.05-1.03-0.14-1.46c-0.1-0.43-0.28-0.77-0.56-1.02s-0.72-0.37-1.31-0.37
				c-0.56,0-0.98,0.12-1.27,0.37c-0.29,0.25-0.48,0.59-0.58,1.02c-0.1,0.43-0.14,0.92-0.14,1.46v8.95c0,0.53,0.04,1.02,0.13,1.46
				s0.28,0.8,0.56,1.06C187.05,154.94,187.48,155.06,188.06,155.06z"/>
			<path d="M198.69,157.42v-19.44h3.55v16.99h4.7v2.45H198.69z"/>
			<path d="M213.14,157.42v-16.82h-3.1v-2.62h9.7v2.62h-3.05v16.82H213.14z"/>
			<path d="M223.92,157.42v-19.44h8.16v2.5h-4.61v5.59h3.62v2.47h-3.62v6.43h4.66v2.45H223.92z"/>
		</g>
	</g>
</g>
<g id="Layer_4_copy_5" class="st3">
	<rect class="st24" width="400" height="300"/>
	<g class="st5">
		<g>
			<path d="M131.88,157.42v-19.44h4.58c1.58,0,2.82,0.22,3.71,0.65c0.89,0.43,1.52,1.1,1.9,1.99s0.56,2.03,0.56,3.41v7.1
				c0,1.41-0.19,2.58-0.56,3.52c-0.38,0.94-1,1.63-1.87,2.09s-2.07,0.68-3.59,0.68H131.88z M135.43,154.94h1.08
				c0.82,0,1.4-0.14,1.75-0.43c0.35-0.29,0.57-0.71,0.65-1.26c0.08-0.55,0.12-1.23,0.12-2.03v-7.44c0-0.78-0.06-1.42-0.17-1.9
				c-0.11-0.48-0.34-0.83-0.7-1.06c-0.35-0.22-0.92-0.34-1.7-0.34h-1.03V154.94z"/>
			<path d="M152.97,157.68c-1.44,0-2.56-0.26-3.36-0.79c-0.8-0.53-1.35-1.28-1.66-2.26c-0.3-0.98-0.46-2.14-0.46-3.5v-13.15h3.46
				v13.56c0,0.61,0.04,1.18,0.12,1.72c0.08,0.54,0.27,0.97,0.56,1.3c0.3,0.33,0.74,0.49,1.33,0.49c0.62,0,1.08-0.16,1.36-0.49
				c0.28-0.33,0.46-0.76,0.55-1.3c0.09-0.54,0.13-1.11,0.13-1.72v-13.56h3.43v13.15c0,1.36-0.15,2.53-0.46,3.5
				c-0.3,0.98-0.85,1.73-1.64,2.26C155.55,157.42,154.43,157.68,152.97,157.68z"/>
			<path d="M163.63,157.42v-19.44h7.99v2.45h-4.44v5.66h3.62v2.47h-3.62v8.86H163.63z"/>
			<path d="M175.94,157.42v-19.44h7.99v2.45h-4.44v5.66h3.62v2.47h-3.62v8.86H175.94z"/>
			<path d="M188.25,157.42v-19.44h3.55v16.99h4.7v2.45H188.25z"/>
			<path d="M200.76,157.42v-19.44h8.16v2.5h-4.61v5.59h3.62v2.47h-3.62v6.43h4.66v2.45H200.76z"/>
			<path d="M218.66,157.68c-1.42,0-2.54-0.28-3.35-0.84c-0.81-0.56-1.37-1.32-1.69-2.29c-0.32-0.97-0.48-2.08-0.48-3.35v-6.94
				c0-1.33,0.16-2.48,0.48-3.46c0.32-0.98,0.88-1.73,1.69-2.26c0.81-0.53,1.92-0.79,3.35-0.79c1.34,0,2.4,0.23,3.16,0.68
				s1.3,1.11,1.62,1.96c0.32,0.85,0.48,1.83,0.48,2.95v1.63h-3.41v-1.68c0-0.54-0.03-1.04-0.08-1.49c-0.06-0.45-0.21-0.8-0.46-1.07
				s-0.68-0.4-1.28-0.4c-0.61,0-1.05,0.14-1.33,0.42c-0.28,0.28-0.46,0.66-0.54,1.13c-0.08,0.47-0.12,1-0.12,1.6v8.45
				c0,0.7,0.06,1.28,0.17,1.74s0.32,0.8,0.61,1.03c0.3,0.23,0.7,0.35,1.21,0.35c0.59,0,1.01-0.14,1.26-0.42s0.4-0.65,0.47-1.12
				c0.06-0.46,0.1-0.98,0.1-1.56v-1.75h3.41v1.56c0,1.15-0.15,2.17-0.46,3.06c-0.3,0.89-0.84,1.58-1.6,2.09
				C221.1,157.43,220.04,157.68,218.66,157.68z"/>
			<path d="M234.07,157.68c-1.38,0-2.47-0.26-3.29-0.77c-0.82-0.51-1.4-1.25-1.75-2.21s-0.53-2.1-0.53-3.41v-7.27
				c0-1.31,0.18-2.44,0.53-3.37s0.94-1.65,1.75-2.15c0.82-0.5,1.91-0.74,3.29-0.74c1.41,0,2.52,0.25,3.32,0.74
				c0.81,0.5,1.39,1.21,1.75,2.15s0.54,2.06,0.54,3.37v7.3c0,1.3-0.18,2.42-0.54,3.37s-0.94,1.69-1.75,2.21
				C236.58,157.42,235.48,157.68,234.07,157.68z M234.07,155.06c0.59,0,1.03-0.13,1.31-0.38c0.28-0.26,0.47-0.61,0.56-1.06
				c0.1-0.45,0.14-0.94,0.14-1.46v-8.95c0-0.54-0.05-1.03-0.14-1.46c-0.1-0.43-0.28-0.77-0.56-1.02c-0.28-0.25-0.72-0.37-1.31-0.37
				c-0.56,0-0.98,0.12-1.27,0.37c-0.29,0.25-0.48,0.59-0.58,1.02c-0.1,0.43-0.14,0.92-0.14,1.46v8.95c0,0.53,0.04,1.02,0.13,1.46
				c0.09,0.45,0.28,0.8,0.56,1.06S233.49,155.06,234.07,155.06z"/>
			<path d="M243.72,157.42l3.89-19.44h3.79l3.89,19.44H252l-0.77-4.49h-3.38l-0.79,4.49H243.72z M248.2,150.67h2.64l-1.32-8.16
				L248.2,150.67z"/>
			<path d="M261.57,157.42v-16.82h-3.1v-2.62h9.7v2.62h-3.05v16.82H261.57z"/>
		</g>
	</g>
</g>
<g id="Layer_10" class="st3">
	<rect class="st25" width="400" height="300"/>
	<g id="Page-1" class="st5">
		<g id="Webovio" transform="translate(-166.000000, -23.000000)">
			<g id="_x30_1-Navigation-bar" transform="translate(164.000000, 23.000000)">
				<g id="Logo">
					<g id="webovio." transform="translate(66.203389, 0.000000)">
						<path id="webovio" class="st12" d="M72.57,141.78l8.55,22.44h5.89l4.02-12.06l4.17,12.06h5.89l8.44-22.44h-7.05l-4.42,12.5
							l-4.31-12.5h-5.45l-4.09,12.43l-4.46-12.43H72.57z M111.07,153.04c0,7.53,4.75,11.73,11.66,11.73c4.72,0,8.52-2.34,10.49-5.85
							l-0.43-0.26c-1.56-0.93-4.87-2.85-4.87-2.85l-0.2,0.26c-1.14,1.45-2.56,2.84-4.66,2.84c-2.56,0-4.68-1.28-5.26-3.95h15.79
							c0.03-0.45,0.01-0.73,0-1.16l0-0.19c0-8.01-4.57-12.28-11.04-12.28C115.93,141.34,111.07,146.24,111.07,153.04z
							 M122.47,147.04c2.12,0,3.29,1.02,4.09,3.18h-8.52C118.89,148.14,120.17,147.04,122.47,147.04z M137.24,136.22v28h6.65v-2.34
							c2.08,2.05,4.28,2.89,7.24,2.89c6.32,0,10.31-5.48,10.31-11.73c0-6.1-3.91-11.7-10.53-11.7c-3.91,0-6.91,2.56-6.91,2.56v-7.68
							H137.24z M149.38,147.63c3.07,0,5.3,2.41,5.3,5.26c0,3.18-1.68,5.85-5.01,5.85c-3.55,0-5.85-2.23-5.85-5.7
							C143.82,149.78,146.2,147.63,149.38,147.63z M164,153.11c0,6.25,5.26,11.88,12.14,11.88c7.31,0,12.25-5.15,12.25-11.99
							c0-6.76-5.3-11.66-12.1-11.66C169.37,141.34,164,146.38,164,153.11z M176.24,147.74c3.18,0,5.37,2.27,5.37,5.15
							c0,3.51-2.05,5.67-5.41,5.67c-3.11,0-5.41-2.34-5.41-5.34C170.8,150.15,172.95,147.74,176.24,147.74z M189.99,141.78
							l9.39,22.44h6.07l8.81-22.44h-7.16l-4.61,13.12l-4.9-13.12H189.99z M223.76,164.22v-22.44h-6.8v22.44H223.76z M216.31,136.08
							c0,2.3,1.79,4.09,4.02,4.09c2.34,0,4.2-1.86,4.2-4.17c0-2.27-1.86-4.06-4.13-4.06C218.13,131.95,216.31,133.81,216.31,136.08z
							 M227.42,153.11c0,6.25,5.26,11.88,12.14,11.88c7.31,0,12.25-5.15,12.25-11.99c0-6.76-5.3-11.66-12.1-11.66
							C232.79,141.34,227.42,146.38,227.42,153.11z M239.66,147.74c3.18,0,5.37,2.27,5.37,5.15c0,3.51-2.05,5.67-5.41,5.67
							c-3.11,0-5.41-2.34-5.41-5.34C234.22,150.15,236.37,147.74,239.66,147.74z"/>
						<path id="_x2E_" class="st12" d="M258.45,156.13c2.3,0,4.2,1.9,4.2,4.2s-1.9,4.2-4.2,4.2s-4.2-1.9-4.2-4.2
							S256.15,156.13,258.45,156.13z"/>
					</g>
					<g id="Group-3" transform="translate(0.000000, 4.271186)">
						<path id="Triangle" class="st26" d="M103.48,162.16l-18.13-30.21l0,0h36.08c1.85,0,3.35,1.5,3.35,3.35
							c0,0.61-0.16,1.2-0.48,1.72l-15.09,25.14c-0.95,1.59-3.01,2.1-4.59,1.15C104.16,163.02,103.77,162.63,103.48,162.16z"/>
						<path id="Triangle-Copy" class="st27" d="M96.44,162.16l18.13-30.21l0,0H78.49c-1.85,0-3.35,1.5-3.35,3.35
							c0,0.61,0.16,1.2,0.48,1.72l15.09,25.14c0.95,1.59,3.01,2.1,4.59,1.15C95.77,163.02,96.16,162.63,96.44,162.16z"/>
						<polygon id="Rectangle" class="st28" points="85.36,131.95 114.57,131.95 99.96,156.29 						"/>
					</g>
				</g>
			</g>
		</g>
	</g>
</g>
<g id="Layer_10_copy">
	<rect class="st29" width="400" height="300"/>
	<g>
		<path class="st12" d="M159.41,163.1h-9.73c-2.97,0.07-5.74-1.45-7.28-3.99c-1.66-2.64-2.5-5.72-2.39-8.84
			c-0.1-3.2,0.75-6.36,2.43-9.09c1.8-2.76,4.2-4.15,7.22-4.15h12.75v5.53h-11.79c-1.42,0-2.54,0.75-3.35,2.26
			c-0.77,1.56-1.15,3.28-1.09,5.02c-0.05,1.81,0.34,3.61,1.13,5.24c0.83,1.59,1.93,2.39,3.31,2.39h10.63L159.41,163.1z"/>
		<path class="st12" d="M188.1,163.1h-6.17l-6.82-20.08c-0.04-0.21-0.19-0.32-0.44-0.32c-0.23-0.01-0.44,0.11-0.54,0.32l-6.66,20.08
			h-6.26c0.36-1.24,1.12-3.71,2.29-7.39c1.17-3.68,2.32-7.17,3.45-10.46c0.63-2.08,1.38-4.12,2.26-6.11
			c0.56-0.77,1.33-1.35,2.22-1.67c2.06-0.76,4.33-0.76,6.4,0c0.9,0.32,1.68,0.91,2.25,1.67c0.31,0.42,1.08,2.44,2.3,6.06
			c0.77,2.22,1.89,5.71,3.36,10.47C186.66,158.56,187.44,161.03,188.1,163.1z"/>
		<path class="st12" d="M204,152.79h-5.53c-1.2-0.11-2.37,0.44-3.05,1.43c-0.44,0.74-0.65,1.59-0.62,2.45v6.41h-5.64v-8.63
			c-0.08-1.81,0.46-3.59,1.53-5.04c1.2-1.46,2.96-2.24,5.28-2.24h7.07c0.59,0.02,1.15-0.23,1.52-0.69c0.35-0.45,0.54-1.01,0.53-1.58
			c0.02-0.59-0.16-1.17-0.51-1.64c-0.36-0.49-0.94-0.76-1.54-0.75h-13.88v-5.53H204c2.05-0.08,4.02,0.83,5.28,2.45
			c1.19,1.56,1.81,3.48,1.75,5.44c0.06,1.95-0.56,3.87-1.75,5.42C208.03,151.93,206.06,152.86,204,152.79z"/>
		<polygon class="st12" points="218.37,163.1 212.6,163.1 212.6,146.62 218.37,144.31 		"/>
		<polygon class="st12" points="218.37,142.53 212.6,144.84 212.6,137.03 218.37,137.03 		"/>
		<polygon class="st12" points="237.59,142.53 231.7,142.53 231.7,163.1 226,163.1 226,142.53 220.13,142.53 220.13,137.03 
			237.59,137.03 		"/>
		<path class="st12" d="M260,163.1h-6.18l-6.81-20.08c-0.04-0.21-0.19-0.32-0.44-0.32c-0.23-0.01-0.44,0.11-0.54,0.32l-6.66,20.08
			h-6.26c0.36-1.24,1.12-3.71,2.29-7.39c1.17-3.68,2.32-7.17,3.45-10.46c0.63-2.08,1.38-4.12,2.26-6.11
			c0.56-0.77,1.33-1.35,2.22-1.67c2.06-0.76,4.33-0.76,6.4,0c0.89,0.33,1.67,0.91,2.23,1.67c0.31,0.42,1.08,2.44,2.3,6.06
			c0.76,2.22,1.89,5.71,3.38,10.47C258.56,158.56,259.35,161.03,260,163.1z"/>
	</g>
</g>
</svg>
